<svg height="24" viewBox="0 0 24 24" width="24" xmlns="http://www.w3.org/2000/svg"><path d="M 4 20 L 4 11 C 3.45 11 3 10.55 3 10 L 3 8 C 3 7.45 3.45 7 4 7 L 4 4 C 4 3.45 4.45 3 5 3 L 19 3 C 19.55 3 20 3.45 20 4 L 20 7 C 20.55 7 21 7.45 21 8 L 21 10 C 21 10.55 20.55 11 20 11 L 20 20 C 20 20.55 19.55 21 19 21 L 18 21 C 17.45 21 17 20.55 17 20 L 17 19 L 7 19 L 7 20 C 7 20.55 6.55 21 6 21 L 5 21 C 4.45 21 4 20.55 4 20 M 7 17 L 8 17 C 8.55 17 9 16.55 9 16 C 9 15.45 8.55 15 8 15 L 7 15 C 6.45 15 6 15.45 6 16 C 6 16.55 6.45 17 7 17 M 18 16 C 18 15.45 17.55 15 17 15 L 16 15 C 15.45 15 15 15.45 15 16 C 15 16.55 15.45 17 16 17 L 17 17 C 17.55 17 18 16.55 18 16 M 18 12 L 18 6 C 18 5.45 17.55 5 17 5 L 7 5 C 6.45 5 6 5.45 6 6 L 6 12 C 6 12.55 6.45 13 7 13 L 17 13 C 17.55 13 18 12.55 18 12" fill="currentColor" /></svg>