<svg height="24" viewBox="0 0 24 24" width="24" xmlns="http://www.w3.org/2000/svg"><path d="M 4 16 C 4 16.88 4.39 17.67 5 18.22 L 5 20 C 5 20.55 5.45 21 6 21 L 7 21 C 7.55 21 8 20.55 8 20 L 8 19 L 16 19 L 16 20 C 16 20.55 16.45 21 17 21 L 18 21 C 18.55 21 19 20.55 19 20 L 19 18.22 C 19.61 17.67 20 16.88 20 16 L 20 6 C 20 2.5 16.42 2 12 2 S 4 2.5 4 6 L 4 16 M 7.5 17 C 6.67 17 6 16.33 6 15.5 S 6.67 14 7.5 14 S 9 14.67 9 15.5 S 8.33 17 7.5 17 M 16.5 17 C 15.67 17 15 16.33 15 15.5 S 15.67 14 16.5 14 S 18 14.67 18 15.5 S 17.33 17 16.5 17 M 18 11 L 6 11 L 6 6 L 18 6 L 18 11" fill="currentColor" /></svg>