<svg height="24" viewBox="0 0 24 24" width="24" xmlns="http://www.w3.org/2000/svg"><path d="M 6 21 L 5 21 C 4.45 21 4 20.55 4 20 L 4 19 L 3 19 L 3 11 L 2 11 L 2 7 L 3 7 L 3 3 C 3 2.45 3.45 2 4 2 L 20 2 C 20.55 2 21 2.45 21 3 L 21 7 L 22 7 L 22 11 L 21 11 L 21 19 L 20 19 L 20 20 C 20 20.55 19.55 21 19 21 L 18 21 C 17.45 21 17 20.55 17 20 L 17 19 L 7 19 L 7 20 C 7 20.55 6.55 21 6 21 M 5 17 L 9 17 L 9 15 L 5 15 L 5 17 M 19 17 L 19 15 L 15 15 L 15 17 L 19 17 M 5 13 L 19 13 L 19 4 L 5 4 L 5 13" fill="currentColor" /></svg>