<svg height="24" viewBox="0 0 24 24" width="24" xmlns="http://www.w3.org/2000/svg"><path d="M 21 5.5 L 21 20.5 C 21 21.33 20.33 22 19.5 22 L 4.5 22 C 3.67 22 3 21.33 3 20.5 L 3 5.5 C 3 4.67 3.67 4 4.5 4 L 7 4 L 7 2 L 9 2 L 9 4 L 15 4 L 15 2 L 17 2 L 17 4 L 19.5 4 C 20.33 4 21 4.67 21 5.5 M 19 8 L 5 8 L 5 20 L 19 20 L 19 8" fill="currentColor" /><path d="M 7 15 L 9 15 L 9 17 L 7 17 L 7 15 M 18 30 L 20 30 L 20 32 L 18 32 L 18 30 M 33 45 L 35 45 L 35 47 L 33 47 L 33 45 M 48 56 L 50 56 L 50 58 L 48 58 L 48 56 M 59 67 L 61 67 L 61 69 L 59 69 L 59 67 M 66 78 L 68 78 L 68 80 L 66 80 L 66 78" fill="currentColor" /></svg>