<svg height="24" viewBox="0 0 24 24" width="24" xmlns="http://www.w3.org/2000/svg"><path d="M 21 6 L 21 20 C 21 20.5 21 21 20.5 21.5 S 19.5 22 19 22 L 5 22 C 4.5 22 4 22 3.5 21.5 S 3 20.5 3 20 L 3 6 C 3 5.5 3 5 3.5 4.5 S 4.5 4 5 4 L 7 4 L 7 2 L 9 2 L 9 4 L 15 4 L 15 2 L 17 2 L 17 4 L 19 4 C 19.5 4 20 4 20.5 4.5 S 21 5.5 21 6 M 19 8 L 5 8 L 5 20 L 19 20 L 19 8" fill="currentColor" /><path d="M 7 15 L 9 15 L 9 17 L 7 17 L 7 15 M 11 15 L 13 15 L 13 17 L 11 17 L 11 15 M 15 15 L 17 15 L 17 17 L 15 17 L 15 15 M 15 11 L 17 11 L 17 13 L 15 13 L 15 11 M 11 11 L 13 11 L 13 13 L 11 13 L 11 11 M 7 11 L 9 11 L 9 13 L 7 13 L 7 11" fill="currentColor" /></svg>