<svg height="24" viewBox="0 0 24 24" width="24" xmlns="http://www.w3.org/2000/svg"><path d="M 7 15 L 9 15 L 9 17 L 7 17 L 7 15 M 13 15 L 13 17 L 11 17 L 11 15 L 13 15 M 15 15 L 17 15 L 17 17 L 15 17 L 15 15 M 17 11 L 17 13 L 15 13 L 15 11 L 17 11 M 11 11 L 13 11 L 13 13 L 11 13 L 11 11 M 9 11 L 9 13 L 7 13 L 7 11 L 9 11" fill="currentColor" /><path d="M 19.5 4 C 20.33 4 21 4.67 21 5.5 L 21 20.5 C 21 21.33 20.33 22 19.5 22 L 4.5 22 C 3.67 22 3 21.33 3 20.5 L 3 5.5 C 3 4.67 3.67 4 4.5 4 L 7 4 L 7 2 L 9 2 L 9 4 L 15 4 L 15 2 L 17 2 L 17 4 L 19.5 4 M 19 8 L 5 8 L 5 20 L 19 20 L 19 8" fill="currentColor" /></svg>