<svg height="24" viewBox="0 0 24 24" width="24" xmlns="http://www.w3.org/2000/svg"><path d="M 17 11 L 17 13 L 15 13 L 15 11 L 17 11 M 7 17 L 7 15 L 9 15 L 9 17 L 7 17 M 13 17 L 13 15 L 11 15 L 11 17 L 13 17 M 17 15 L 17 17 L 15 17 L 15 15 L 17 15 M 13 13 L 13 11 L 11 11 L 11 13 L 13 13 M 9 11 L 9 13 L 7 13 L 7 11 L 9 11" fill="currentColor" /><path d="M 20 22 C 20.55 22 21 21.55 21 21 L 21 5 C 21 4.45 20.55 4 20 4 L 17 4 L 17 3 C 17 2.45 16.55 2 16 2 C 15.45 2 15 2.45 15 3 L 15 4 L 9 4 L 9 3 C 9 2.45 8.55 2 8 2 C 7.45 2 7 2.45 7 3 L 7 4 L 4 4 C 3.45 4 3 4.45 3 5 L 3 21 C 3 21.55 3.45 22 4 22 L 20 22 M 5 9 C 5 8.45 5.45 8 6 8 L 18 8 C 18.55 8 19 8.45 19 9 L 19 19 C 19 19.55 18.55 20 18 20 L 6 20 C 5.45 20 5 19.55 5 19 L 5 9" fill="currentColor" /></svg>