<svg height="24" viewBox="0 0 24 24" width="24" xmlns="http://www.w3.org/2000/svg"><path d="M 16.5 3 C 14.76 3 13.09 3.81 12 5.09 C 10.91 3.8099999999999996 9.24 3 7.5 3 C 4.42 3 2 5.42 2 8.5 C 2 12.28 5.4 15.36 10.55 20.04 L 12 21.349999999999998 L 13.45 20.029999999999998 C 18.6 15.359999999999998 22 12.279999999999998 22 8.499999999999998 C 22 5.419999999999998 19.58 2.9999999999999982 16.5 2.9999999999999982 M 12.1 18.549999999999997 L 12 18.65 L 11.9 18.549999999999997 C 7.140000000000001 14.239999999999998 4 11.389999999999997 4 8.499999999999996 C 4 6.4999999999999964 5.5 4.9999999999999964 7.5 4.9999999999999964 C 9.04 4.9999999999999964 10.54 5.989999999999997 11.07 7.359999999999996 L 12.940000000000001 7.359999999999996 C 13.46 5.989999999999996 14.96 4.9999999999999964 16.5 4.9999999999999964 C 18.5 4.9999999999999964 20 6.4999999999999964 20 8.499999999999996 C 20 11.389999999999997 16.86 14.239999999999997 12.1 18.549999999999997" fill="currentColor" /></svg>