<svg height="24" viewBox="0 0 24 24" width="24" xmlns="http://www.w3.org/2000/svg"><path d="M 15.5 14 L 14.71 14 L 14.430000000000001 13.73 C 15.410000000000002 12.59 16 11.11 16 9.5 C 16 5.91 13.09 3 9.5 3 S 3 5.91 3 9.5 S 5.91 16 9.5 16 C 11.11 16 12.59 15.41 13.73 14.43 L 14 14.709999999999999 L 14 15.5 L 19 20.490000000000002 L 20.49 19.000000000000004 L 15.499999999999998 14.000000000000004 M 9.499999999999998 14.000000000000004 C 7.009999999999998 14.000000000000004 4.999999999999998 11.990000000000004 4.999999999999998 9.500000000000004 S 7.009999999999998 5.0000000000000036 9.499999999999998 5.0000000000000036 S 13.999999999999998 7.010000000000003 13.999999999999998 9.500000000000004 S 11.989999999999998 14.000000000000004 9.499999999999998 14.000000000000004" fill="currentColor" /></svg>