<svg height="24" width="24" viewBox="0 0 24 24" xmlns="http://www.w3.org/2000/svg"><g fill="currentColor" stroke="red" stroke-width=".25"><path d="M17 12a5 5 0 1 0-10 0 5 5 0 0 0 10 0M11 2a1 1 0 0 1 2 0v2a1 1 0 0 1-2 0M11 20a1 1 0 0 1 2 0v2a1 1 0 0 1-2 0M2 13a1 1 0 0 1 0-2h2a1 1 0 0 1 0 2M20 13a1 1 0 0 1 0-2h2a1 1 0 0 1 0 2M5.99 4.575A1 1 0 0 0 4.575 5.99l1.06 1.06A1 1 0 0 0 7.05 5.635M18.01 4.575a1 1 0 0 1 1.416 1.415l-1.06 1.06a1 1 0 0 1-1.415-1.415M5.636 16.95a1 1 0 0 1 1.415 1.415l-1.06 1.06a1 1 0 0 1-1.415-1.415M18.365 16.95a1 1 0 0 0-1.415 1.415l1.06 1.06a1 1 0 0 0 1.415-1.415"/></g></svg>