<svg height="24" viewBox="0 0 24 24" width="24" xmlns="http://www.w3.org/2000/svg"><path d="M 12 7 C 9.24 7 7 9.24 7 12 S 9.24 17 12 17 S 17 14.76 17 12 S 14.76 7 12 7 M 11 20 L 11 22 C 11 22.55 11.45 23 12 23 S 13 22.55 13 22 L 13 20 C 13 19.45 12.55 19 12 19 S 11 19.45 11 20 M 7.05 18.36 L 5.99 19.42 C 6.38 19.81 7.02 19.81 7.4 19.42 M 19.77 16.95 C 19.39 17.34 19.38 17.98 19.77 18.36 L 20.83 19.42 C 21.22 19.81 21.86 19.81 22.24 19.42 C 22.62 19.03 22.63 18.39 22.24 18.01 M 24.24 31.01 L 26.24 31.01 C 26.79 31.01 27.24 30.56 27.24 30.01 S 26.79 29.01 26.24 29.01 L 24.24 29.01 C 23.69 29.01 23.24 29.46 23.24 30.01 S 23.69 31.01 24.24 31.01 M 42.24 31.01 L 44.24 31.01 C 44.79 31.01 45.24 30.56 45.24 30.01 S 44.79 29.01 44.24 29.01 L 42.24 29.01 C 41.69 29.01 41.24 29.46 41.24 30.01 S 41.69 31.01 42.24 31.01 M 53.24 33.01 L 53.24 35.01 C 53.24 35.56 53.69 36.01 54.24 36.01 S 55.24 35.56 55.24 35.01 L 55.24 33.01 C 55.24 32.46 54.79 32.01 54.24 32.01 S 53.24 32.46 53.24 33.01 M 59.23 37.59 C 58.85 37.98 58.84 38.62 59.23 39 L 60.29 40.06 C 60.68 40.45 61.32 40.45 61.7 40.06 C 62.08 39.67 62.09 39.03 61.7 38.65 M 74.07 39 C 73.68 38.62 73.04 38.61 72.66 39 L 71.6 40.06 C 71.99 40.44 72.63 40.45 73.01 40.06" fill="currentColor" /></svg>