<svg height="24" viewBox="0 0 24 24" width="24" xmlns="http://www.w3.org/2000/svg"><path d="M 11 2 C 11 1.45 11.45 1 12 1 C 12.55 1 13 1.45 13 2 L 13 4 C 13 4.55 12.55 5 12 5 C 11.45 5 11 4.55 11 4 L 11 2 M 5.73 7.15 L 4.49 5.91 C 4.15 5.57 4.19 4.98 4.58 4.59 C 4.97 4.2 5.57 4.16 5.91 4.5 L 7.15 5.74 C 7.49 6.08 7.45 6.68 7.06 7.07 C 6.67 7.46 6.08 7.5 5.73 7.16 M 16.85 5.74 L 18.09 4.5 C 18.43 4.16 19.03 4.2 19.42 4.59 C 19.81 4.98 19.85 5.58 19.51 5.92 L 18.27 7.16 C 17.93 7.5 17.33 7.46 16.94 7.07 C 16.55 6.68 16.51 6.09 16.85 5.74 M 18.09 19.5 L 16.85 18.26 C 16.51 17.92 16.55 17.32 16.94 16.93 C 17.33 16.54 17.93 16.5 18.27 16.84 L 19.51 18.08 C 19.85 18.42 19.81 19.02 19.42 19.41 C 19.03 19.8 18.43 19.84 18.09 19.5 M 4.5 18.09 L 5.74 16.85 C 6.08 16.51 6.68 16.55 7.07 16.94 C 7.46 17.33 7.5 17.93 7.16 18.27 L 5.92 19.51 C 5.58 19.85 4.98 19.81 4.59 19.42 C 4.2 19.03 4.16 18.44 4.5 18.09 M 20 11 C 19.45 11 19 11.45 19 12 C 19 12.55 19.45 13 20 13 L 22 13 C 22.55 13 23 12.55 23 12 C 23 11.45 22.55 11 22 11 L 20 11 M 5 12 C 5 11.45 4.55 11 4 11 L 2 11 C 1.45 11 1 11.45 1 12 C 1 12.55 1.45 13 2 13 L 4 13 C 4.55 13 5 12.55 5 12 M 11 22 C 11 22.55 11.45 23 12 23 C 12.55 23 13 22.55 13 22 L 13 20 C 13 19.45 12.55 19 12 19 C 11.45 19 11 19.45 11 20 L 11 22 M 12 17 C 14.76 17 17 14.76 17 12 C 17 9.24 14.76 7 12 7 C 9.24 7 7 9.24 7 12 C 7 14.76 9.24 17 12 17" fill="currentColor" /></svg>