<svg height="24" viewBox="0 0 24 24" width="24" xmlns="http://www.w3.org/2000/svg"><path d="M 12 7 C 9.24 7 7 9.24 7 12 S 9.24 17 12 17 S 17 14.76 17 12 S 14.76 7 12 7 L 12 7 M 14 20 L 16 20 C 16.55 20 17 19.55 17 19 S 16.55 18 16 18 L 14 18 C 13.45 18 13 18.45 13 19 S 13.45 20 14 20 M 34 33 L 36 33 C 36.55 33 37 32.55 37 32 S 36.55 31 36 31 L 34 31 C 33.45 31 33 31.45 33 32 S 33.45 33 34 33 M 45 35 L 45 37 C 45 37.55 45.45 38 46 38 S 47 37.55 47 37 L 47 35 C 47 34.45 46.55 34 46 34 S 45 34.45 45 35 M 56 55 L 56 57 C 56 57.55 56.45 58 57 58 S 58 57.55 58 57 L 58 55 C 58 54.45 57.55 54 57 54 C 56.45 54 56 54.45 56 55 M 61.99 59.58 C 61.6 59.19 60.96 59.19 60.58 59.58 C 60.19 59.97 60.19 60.61 60.58 60.99 L 61.64 62.05 C 62.03 62.44 62.67 62.44 63.05 62.05 S 63.44 61.02 63.05 60.64 L 61.99 59.58 M 80.35 76.53 C 79.96 76.14 79.32 76.14 78.94 76.53 C 78.55 76.92 78.55 77.56 78.94 77.94 L 80 79 C 80.39 79.39 81.03 79.39 81.41 79 C 81.8 78.61 81.8 77.97 81.41 77.59 L 80.35 76.53 M 99.77 82.52 C 100.16 82.13 100.16 81.49 99.77 81.11 C 99.38 80.72 98.74 80.72 98.36 81.11 L 97.3 82.17 C 96.91 82.56 96.91 83.2 97.3 83.58 S 98.33 83.97 98.71 83.58 L 99.77 82.52 M 106.82 100.88 C 107.21 100.49 107.21 99.85 106.82 99.47 C 106.43 99.08 105.79 99.08 105.41 99.47 L 104.35 100.53 C 103.96 100.92 103.96 101.56 104.35 101.94 S 105.38 102.33 105.76 101.94 L 106.82 100.88" fill="currentColor" /></svg>