<svg height="24" viewBox="0 0 24 24" width="24" xmlns="http://www.w3.org/2000/svg"><path d="M 12 7 C 9.24 7 7 9.24 7 12 S 9.24 17 12 17 S 17 14.76 17 12 S 14.76 7 12 7 L 12 7 M 2 13 L 4 13 C 4.55 13 5 12.55 5 12 S 4.55 11 4 11 L 2 11 C 1.45 11 1 11.45 1 12 S 1.45 13 2 13 M 20 13 L 22 13 C 22.55 13 23 12.55 23 12 S 22.55 11 22 11 L 20 11 C 19.45 11 19 11.45 19 12 S 19.45 13 20 13 M 11 2 L 11 4 C 11 4.55 11.45 5 12 5 S 13 4.55 13 4 L 13 2 C 13 1.45 12.55 1 12 1 S 11 1.45 11 2 M 11 20 L 11 22 C 11 22.55 11.45 23 12 23 S 13 22.55 13 22 L 13 20 C 13 19.45 12.55 19 12 19 C 11.45 19 11 19.45 11 20 M 5.99 4.58 C 5.6 4.19 4.96 4.19 4.58 4.58 C 4.19 4.97 4.19 5.61 4.58 5.99 L 5.64 7.05 C 6.03 7.44 6.67 7.44 7.05 7.05 S 7.44 6.02 7.05 5.64 L 5.99 4.58 M 18.36 16.95 C 17.97 16.56 17.33 16.56 16.95 16.95 C 16.56 17.34 16.56 17.98 16.95 18.36 L 18.01 19.42 C 18.4 19.81 19.04 19.81 19.42 19.42 C 19.81 19.03 19.81 18.39 19.42 18.01 L 18.36 16.95 M 19.42 5.99 C 19.81 5.6 19.81 4.96 19.42 4.58 C 19.03 4.19 18.39 4.19 18.01 4.58 L 16.95 5.64 C 16.56 6.03 16.56 6.67 16.95 7.05 S 17.98 7.44 18.36 7.05 L 19.42 5.99 M 7.05 18.36 C 7.44 17.97 7.44 17.33 7.05 16.95 C 6.66 16.56 6.02 16.56 5.64 16.95 L 4.58 18.01 C 4.19 18.4 4.19 19.04 4.58 19.42 S 5.61 19.81 5.99 19.42 L 7.05 18.36" fill="currentColor" /></svg>