<svg height="24" viewBox="0 0 24 24" width="24" xmlns="http://www.w3.org/2000/svg"><path d="M 17 12 C 17 14.76 14.76 17 12 17 C 9.24 17 7 14.76 7 12 C 7 9.24 9.24 7 12 7 C 14.76 7 17 9.24 17 12 M 11 4 L 11 2 C 11 1.45 11.45 1 12 1 C 12.55 1 13 1.45 13 2 L 13 4 C 13 4.55 12.55 5 12 5 C 11.45 5 11 4.55 11 4 M 20 11 L 22 11 C 22.55 11 23 11.45 23 12 C 23 12.55 22.55 13 22 13 L 20 13 C 19.45 13 19 12.55 19 12 C 19 11.45 19.45 11 20 11 M 2 11 L 4 11 C 4.55 11 5 11.45 5 12 C 5 12.55 4.55 13 4 13 L 2 13 C 1.45 13 1 12.55 1 12 C 1 11.45 1.45 11 2 11 M 11 22 L 11 20 C 11 19.45 11.45 19 12 19 C 12.55 19 13 19.45 13 20 L 13 22 C 13 22.55 12.55 23 12 23 C 11.45 23 11 22.55 11 22" fill="currentColor" /></svg>