<svg height="24" viewBox="0 0 24 24" width="24" xmlns="http://www.w3.org/2000/svg"><path d="M 4.46 5.46 C 6.41 3.51 9.58 3.51 11.53 5.46 L 12 5.93 L 12.46 5.47 C 14.41 3.52 17.58 3.52 19.53 5.47 C 21.48 7.42 21.48 10.59 19.53 12.54 L 11.99 20.08 L 4.45 12.54 C 2.5 10.59 2.5 7.42 4.45 5.47 M 18.12 11.12 C 19.29 9.95 19.29 8.05 18.12 6.88 C 16.95 5.71 15.05 5.71 13.88 6.88 L 12 8.76 L 10.12 6.88 C 8.95 5.71 7.05 5.71 5.88 6.88 C 4.71 8.05 4.71 9.95 5.88 11.12 L 12 17.24 L 18.12 11.12" fill="currentColor" /></svg>