<svg height="24" viewBox="0 0 24 24" width="24" xmlns="http://www.w3.org/2000/svg"><path d="M 11.68 18.6 C 5.77 13.79 4.16 12.09 4.16 9.3 C 4.16 7 6.03 5.13 8.33 5.13 C 10.08 5.13 11.13 6 11.99 6.97 C 12.86 6 13.91 5.13 15.65 5.13 C 17.95 5.13 19.82 7 19.82 9.3 C 19.82 12.09 18.22 13.79 12.3 18.6 L 12 18.87 L 11.68 18.6 M 8.34 6.14 C 6.6 6.14 5.18 7.56 5.18 9.3 C 5.18 11.62 6.63 13.15 12 17.55 C 17.37 13.14 18.82 11.62 18.82 9.3 C 18.82 7.56 17.4 6.14 15.66 6.14 C 14.05 6.14 13.18 7.13 12.55 7.86 L 12 8.48 L 11.45 7.86 C 10.81 7.13 9.94 6.14 8.34 6.14" fill="currentColor" /></svg>