<svg height="24" viewBox="0 0 24 24" width="24" xmlns="http://www.w3.org/2000/svg"><path d="M 5.04 9.61 C 5.04 12.1 6.48 13.63 11.82 17.97 L 12.05 18.17 L 12.27 17.97 C 17.61 13.63 19.06 12.1 19.06 9.61 C 19.06 7.58 17.41 5.93 15.38 5.93 C 13.79 5.93 12.85 6.75 12.08 7.63 L 12.06 7.65 L 12.04 7.63 C 11.26 6.75 10.33 5.93 8.74 5.93 C 6.7 5.93 5.06 7.58 5.06 9.61 M 5.75 9.61 C 5.75 7.98 7.08 6.65 8.71 6.65 C 10.21 6.65 11.02 7.57 11.6 8.24 L 12.02 8.72 L 12.45 8.24 L 12.46 8.23 C 13.05 7.56 13.85 6.64 15.35 6.64 C 16.98 6.64 18.31 7.97 18.31 9.6 C 18.31 11.75 16.97 13.15 12.04 17.2 L 12.03 17.21 L 12.01 17.2 C 7.08 13.15 5.74 11.75 5.74 9.6" fill="currentColor" /></svg>