<svg height="24" viewBox="0 0 24 24" width="24" xmlns="http://www.w3.org/2000/svg"><path d="M 16.73 17.46 C 15.97 17.46 15.3 16.97 15.08 16.25 L 10 16.25 C 9.77 16.97 9.1 17.46 8.35 17.46 C 7.52 17.46 6.82 16.88 6.65 16.08 L 3.53 14.87 L 3.5 8.48 C 3.5 7.41 4.37 6.54 5.44 6.54 L 16.16 6.54 C 18.28 6.54 20.07 8.06 20.41 10.15 C 20.47 10.54 20.51 10.94 20.51 11.33 L 20.51 14.99 C 20.51 15.68 19.95 16.24 19.26 16.24 L 18.39 16.24 C 18.16 16.96 17.49 17.46 16.73 17.46 M 16.73 15 C 16.33 15 16.01 15.32 16.01 15.72 C 16.02 16.13 16.34 16.45 16.73 16.45 C 17.13 16.45 17.45 16.13 17.45 15.73 C 17.45 15.33 17.13 15 16.73 15 M 8.35 15 C 7.95 15 7.63 15.32 7.63 15.72 C 7.64 16.13 7.96 16.45 8.35 16.45 C 8.74 16.45 9.06 16.13 9.07 15.74 C 9.07 15.54 8.99 15.35 8.85 15.21 C 8.72 15.07 8.54 15 8.35 15 M 19.25 15.23 C 19.38 15.23 19.49 15.12 19.49 14.99 L 19.49 13.65 C 16.48 13.49 15.29 11.97 14.9 11.25 L 4.51 11.29 L 4.51 14.2 L 6.75 15.05 C 7.02 14.41 7.65 13.98 8.35 13.98 C 9.12 13.98 9.8 14.5 10.02 15.23 L 15.07 15.23 C 15.28 14.5 15.97 13.98 16.74 13.98 C 17.51 13.98 18.19 14.5 18.41 15.23 L 19.25 15.23 L 19.25 15.23 M 15.74 10.71 C 15.87 10.97 16.7 12.48 19.5 12.64 L 19.5 11.33 C 19.5 10.99 19.47 10.65 19.42 10.31 C 19.16 8.71 17.79 7.55 16.17 7.55 L 15.75 7.55 L 15.75 10.71 L 15.74 10.71 M 14.72 10.27 L 14.72 7.56 L 12 7.56 L 12 10.28 L 14.72 10.28 L 14.72 10.27 M 10.99 10.27 L 10.99 7.56 L 8.28 7.56 L 8.28 10.28 L 10.99 10.28 L 10.99 10.27 M 7.26 10.27 L 7.26 7.56 L 5.43 7.56 C 4.92 7.56 4.5 7.98 4.5 8.49 L 4.5 10.28 L 7.26 10.28 L 7.26 10.27" fill="currentColor" /></svg>