<svg height="24" viewBox="0 0 24 24" width="24" xmlns="http://www.w3.org/2000/svg"><path d="M 16.32 6.59 C 18.42 6.59 20.2 8.09 20.53 10.17 C 20.6 10.56 20.63 10.96 20.63 11.36 L 20.63 15.13 C 20.63 15.75 20.13 16.26 19.51 16.26 L 18.49 16.26 C 18.32 16.97 17.67 17.51 16.91 17.51 C 16.14 17.51 15.5 16.98 15.33 16.26 L 9.86 16.26 C 9.69 16.97 9.04 17.51 8.28 17.51 C 7.48 17.51 6.81 16.93 6.68 16.16 L 3.45 14.88 L 3.45 8.43 C 3.45 7.42 4.27 6.59 5.29 6.59 L 16.33 6.59 M 19.91 11.36 C 19.91 11 19.88 10.64 19.82 10.29 C 19.53 8.57 18.06 7.31 16.31 7.31 L 15.72 7.31 L 15.72 10.72 C 15.87 11.04 16.77 12.76 19.91 12.88 L 19.91 11.36 M 5.28 7.3 C 4.67 7.3 4.17 7.8 4.17 8.42 L 4.17 10.42 L 7.33 10.42 L 7.33 7.3 L 5.28 7.3 M 7.38 15.89 C 7.39 16.38 7.79 16.78 8.29 16.78 C 8.78 16.78 9.18 16.38 9.2 15.89 C 9.2 15.89 9.2 15.89 9.2 15.88 C 9.2 15.88 9.2 15.87 9.2 15.87 C 9.2 15.37 8.79 14.96 8.29 14.96 C 7.79 14.96 7.38 15.36 7.38 15.87 C 7.38 15.87 7.38 15.88 7.38 15.89 M 16.01 15.89 C 16.02 16.38 16.42 16.78 16.92 16.78 C 17.42 16.78 17.83 16.37 17.83 15.87 C 17.83 15.37 17.42 14.96 16.92 14.96 C 16.42 14.96 16.01 15.37 16.01 15.87 C 16.01 15.87 16.01 15.87 16.01 15.88 C 16.01 15.88 16.01 15.89 16.01 15.89 M 16.91 14.25 C 17.69 14.25 18.34 14.8 18.5 15.54 L 19.5 15.54 C 19.73 15.54 19.91 15.36 19.91 15.13 L 19.91 13.59 C 16.65 13.47 15.46 11.78 15.13 11.14 L 4.16 11.14 L 4.16 14.37 L 6.72 15.38 C 6.93 14.72 7.54 14.24 8.27 14.24 C 9.05 14.24 9.7 14.79 9.86 15.53 L 15.31 15.53 C 15.47 14.8 16.12 14.24 16.9 14.24 M 8.05 7.3 L 8.05 10.42 L 11.17 10.42 L 11.17 7.3 L 8.05 7.3 M 15.01 7.3 L 11.89 7.3 L 11.89 10.42 L 15.01 10.42 L 15.01 7.3" fill="currentColor" /></svg>