<svg height="24" viewBox="0 0 24 24" width="24" xmlns="http://www.w3.org/2000/svg"><path d="M 3 10 C 3 10.55 3.45 11 4 11 L 4 20 C 4 20.55 4.45 21 5 21 L 6 21 C 6.55 21 7 20.55 7 20 L 7 19 L 17 19 L 17 20 C 17 20.55 17.45 21 18 21 L 19 21 C 19.55 21 20 20.55 20 20 L 20 11 C 20.55 11 21 10.55 21 10 L 21 8 C 21 7.45 20.55 7 20 7 L 20 4 C 20 3.45 19.55 3 19 3 L 5 3 C 4.45 3 4 3.45 4 4 L 4 7 C 3.45 7 3 7.45 3 8 L 3 10 M 9 16 C 9 16.55 8.55 17 8 17 L 7 17 C 6.45 17 6 16.55 6 16 C 6 15.45 6.45 15 7 15 L 8 15 C 8.55 15 9 15.45 9 16 M 17 15 C 17.55 15 18 15.45 18 16 C 18 16.55 17.55 17 17 17 L 16 17 C 15.45 17 15 16.55 15 16 C 15 15.45 15.45 15 16 15 L 17 15 M 17 5 C 17.55 5 18 5.45 18 6 L 18 12 C 18 12.55 17.55 13 17 13 L 7 13 C 6.45 13 6 12.55 6 12 L 6 6 C 6 5.45 6.45 5 7 5 L 17 5" fill="currentColor" /></svg>