<svg height="24" viewBox="0 0 24 24" width="24" xmlns="http://www.w3.org/2000/svg"><path d="M 5.52 18.48 L 5.52 6.56 L 8.64 6.56 L 8.64 5.52 L 9.65 5.52 L 9.65 6.56 L 14.36 6.56 L 14.36 5.52 L 15.37 5.52 L 15.37 6.56 L 18.49 6.56 L 18.49 18.49 L 5.52 18.49 L 5.52 18.48 M 17.48 17.48 L 17.48 10.17 L 6.52 10.17 L 6.52 17.48 L 17.48 17.48 M 17.48 9.16 L 17.48 7.56 L 15.37 7.56 L 15.37 8.6 L 14.36 8.6 L 14.36 7.56 L 9.64 7.56 L 9.64 8.6 L 8.64 8.6 L 8.64 7.56 L 6.52 7.56 L 6.52 9.15 L 17.48 9.15 L 17.48 9.16" fill="currentColor" /></svg>