<svg height="24" viewBox="0 0 24 24" width="24" xmlns="http://www.w3.org/2000/svg"><path d="M 17 11 L 17 13 L 15 13 L 15 11 L 17 11 M 7 17 L 7 15 L 9 15 L 9 17 L 7 17 M 13 17 L 13 15 L 11 15 L 11 17 L 13 17 M 17 15 L 17 17 L 15 17 L 15 15 L 17 15 M 13 13 L 13 11 L 11 11 L 11 13 L 13 13 M 9 11 L 9 13 L 7 13 L 7 11 L 9 11" fill="currentColor" /><path d="M 7 4 L 4 4 C 3.45 4 3 4.45 3 5 L 3 21 C 3 21.55 3.45 22 4 22 L 20 22 C 20.55 22 21 21.55 21 21 L 21 5 C 21 4.45 20.55 4 20 4 L 17 4 L 17 2 L 15 2 L 15 4 L 9 4 L 9 2 L 7 2 L 7 4 M 19 8 L 19 20 L 5 20 L 5 8 L 19 8" fill="currentColor" /></svg>