<svg height="24" viewBox="0 0 24 24" width="24" xmlns="http://www.w3.org/2000/svg"><path d="M 17 11 L 17 13 L 15 13 L 15 11 L 17 11 M 7 17 L 7 15 L 9 15 L 9 17 L 7 17 M 13 15 L 13 17 L 11 17 L 11 15 L 13 15 M 17 15 L 17 17 L 15 17 L 15 15 L 17 15 M 13 11 L 13 13 L 11 13 L 11 11 L 13 11 M 9 11 L 9 13 L 7 13 L 7 11 L 9 11" fill="currentColor" /><path d="M 21 21 C 21 21.55 20.55 22 20 22 L 4 22 C 3.45 22 3 21.55 3 21 L 3 5 C 3 4.45 3.45 4 4 4 L 7 4 L 7 2 L 9 2 L 9 4 L 15 4 L 15 2 L 17 2 L 17 4 L 20 4 C 20.55 4 21 4.45 21 5 L 21 21 M 19 20 L 19 8 L 5 8 L 5 20 L 19 20" fill="currentColor" /></svg>