<svg height="24" viewBox="0 0 24 24" width="24" xmlns="http://www.w3.org/2000/svg"><path d="M 5.48 18.61 L 5.48 6.56 L 8.72 6.56 L 8.72 5.48 L 9.44 5.48 L 9.44 6.56 L 14.66 6.56 L 14.66 5.48 L 15.37 5.48 L 15.37 6.56 L 18.61 6.56 L 18.61 18.61 L 5.48 18.61 M 17.89 17.89 L 17.89 9.97 L 6.19 9.97 L 6.19 17.89 L 17.89 17.89 M 17.89 9.25 L 17.89 7.27 L 15.37 7.27 L 15.37 8.35 L 14.66 8.35 L 14.66 7.27 L 9.44 7.27 L 9.44 8.35 L 8.72 8.35 L 8.72 7.27 L 6.2 7.27 L 6.2 9.25 L 17.9 9.25" fill="currentColor" /></svg>