<svg height="24" viewBox="0 0 24 24" width="24" xmlns="http://www.w3.org/2000/svg"><path d="M 18.5 10.81 C 19.25 10.92 19.88 11.29 20.27 11.84 C 20.52 12.18 20.64 12.55 20.64 12.95 L 20.64 13.15 C 20.64 13.99 19.96 14.67 19.12 14.67 L 18.23 14.67 C 18.06 15.53 17.3 16.18 16.39 16.18 C 15.48 16.18 14.73 15.53 14.56 14.67 L 8.8 14.67 C 8.63 15.53 7.87 16.18 6.96 16.18 C 6.05 16.18 5.3 15.53 5.13 14.67 L 4.97 14.67 C 4.13 14.67 3.45 13.99 3.45 13.15 L 3.45 12.44 C 3.45 12.42 3.49 11.67 3.83 10.78 C 3.84 10.73 3.86 10.69 3.88 10.65 C 4.4 9.38 5.56 7.92 8.1 7.92 L 11.6 7.92 C 12.26 7.92 12.91 8.12 13.46 8.48 L 16.34 10.4 C 16.44 10.47 16.56 10.52 16.68 10.53 L 18.49 10.82 M 15.24 10.51 L 13.07 9.06 C 12.64 8.77 12.13 8.62 11.61 8.62 L 10.84 8.62 L 10.84 10.5 L 15.25 10.51 M 6.86 10.48 L 10.12 10.49 L 10.12 8.62 L 8.11 8.62 C 7.89 8.62 7.69 8.64 7.49 8.66 L 6.86 10.48 M 6.1 10.48 L 6.67 8.84 C 5.7 9.17 5.11 9.82 4.74 10.48 L 6.1 10.48 M 5.81 14.31 C 5.81 14.94 6.33 15.46 6.96 15.46 C 7.6 15.46 8.12 14.94 8.12 14.31 C 8.12 13.67 7.6 13.16 6.96 13.16 C 6.33 13.16 5.81 13.68 5.81 14.31 M 15.24 14.31 C 15.24 14.94 15.76 15.46 16.39 15.46 C 17.03 15.46 17.54 14.94 17.54 14.31 C 17.54 13.67 17.02 13.16 16.39 13.16 C 15.76 13.16 15.24 13.68 15.24 14.31 M 19.11 13.95 C 19.55 13.95 19.91 13.59 19.91 13.15 L 19.92 13.15 L 19.92 12.95 C 19.92 12.71 19.84 12.49 19.68 12.26 C 19.41 11.88 18.94 11.61 18.39 11.53 L 16.6 11.25 L 4.42 11.21 C 4.2 11.86 4.17 12.4 4.16 12.47 L 4.16 13.16 C 4.16 13.61 4.52 13.96 4.96 13.96 L 5.12 13.96 C 5.29 13.1 6.05 12.45 6.96 12.45 C 7.87 12.45 8.63 13.1 8.8 13.96 L 14.55 13.96 C 14.72 13.1 15.48 12.45 16.38 12.45 C 17.29 12.45 18.05 13.1 18.22 13.96 L 19.11 13.96" fill="currentColor" /></svg>