<svg height="24" viewBox="0 0 24 24" width="24" xmlns="http://www.w3.org/2000/svg"><path d="M 20 19 C 20 19.55 19.55 20 19 20 L 18 20 C 17.45 20 17 19.55 17 19 L 17 18 L 7 18 L 7 19 C 7 19.55 6.55 20 6 20 L 5 20 C 4.45 20 4 19.55 4 19 L 4 13 L 5.36 4.84 C 5.44 4.36 5.86 4 6.35 4 L 17.66 4 C 18.15 4 18.57 4.35 18.65 4.84 L 20.01 13 L 20.01 19 M 17 6 L 7 6 L 6 12 L 18 12 L 17 6 M 6 15 C 6 15.55 6.45 16 7 16 L 7 16 C 7.55 16 8 15.55 8 15 L 8 15 C 8 14.45 7.55 14 7 14 L 7 14 C 6.45 14 6 14.45 6 15 L 6 15 M 17 16 C 17.55 16 18 15.55 18 15 L 18 15 C 18 14.45 17.55 14 17 14 L 17 14 C 16.45 14 16 14.45 16 15 L 16 15 C 16 15.55 16.45 16 17 16 L 17 16" fill="currentColor" /></svg>