<svg height="24" viewBox="0 0 24 24" width="24" xmlns="http://www.w3.org/2000/svg"><path d="M 16.8 16.67 C 15.79 16.67 14.92 15.97 14.69 15 L 8.52 15 C 8.29 15.97 7.41 16.67 6.41 16.67 C 5.4 16.67 4.53 15.97 4.3 15 L 4.2 15 C 3.21 15 2.41 14.2 2.41 13.21 L 2.41 12.43 C 2.41 12.32 2.47 11.51 2.84 10.54 C 2.85 10.49 2.87 10.43 2.91 10.38 C 3.49 9 4.79 7.33 7.66 7.33 L 11.51 7.33 C 12.26 7.33 13 7.55 13.62 7.97 L 16.8 10.09 C 16.9 10.16 17.01 10.2 17.13 10.22 L 19.13 10.53 C 19.99 10.66 20.71 11.08 21.15 11.71 C 21.43 12.11 21.58 12.54 21.58 12.99 L 21.58 13.22 C 21.58 14.21 20.78 15.01 19.79 15.01 L 18.9 15.01 C 18.68 15.98 17.8 16.67 16.8 16.67 M 16.8 13.34 C 16.16 13.34 15.64 13.86 15.64 14.5 C 15.64 15.14 16.16 15.66 16.8 15.66 C 17.44 15.66 17.96 15.14 17.96 14.5 C 17.96 13.86 17.44 13.34 16.8 13.34 M 6.41 13.34 C 5.77 13.34 5.25 13.86 5.25 14.5 C 5.25 15.14 5.77 15.66 6.41 15.66 C 7.05 15.66 7.57 15.14 7.57 14.5 C 7.57 13.86 7.05 13.34 6.41 13.34 M 19.8 13.99 C 20.23 13.99 20.58 13.64 20.58 13.21 L 20.58 12.98 C 20.58 12.74 20.5 12.51 20.34 12.28 C 20.06 11.88 19.57 11.6 18.99 11.51 L 17.02 11.2 L 3.68 11.18 C 3.46 11.85 3.43 12.4 3.43 12.46 L 3.43 13.22 C 3.43 13.65 3.78 14 4.21 14 L 4.3 14 C 4.53 13.03 5.41 12.33 6.41 12.33 C 7.42 12.33 8.29 13.03 8.52 14 L 14.69 14 C 14.92 13.03 15.8 12.33 16.8 12.33 C 17.81 12.33 18.68 13.03 18.91 14 L 19.8 14 L 19.8 13.99 M 15.16 10.2 L 13.07 8.81 C 12.61 8.5 12.07 8.34 11.52 8.34 L 10.78 8.34 L 10.78 10.19 L 15.16 10.2 M 9.77 10.19 L 9.77 8.34 L 7.67 8.34 C 7.47 8.34 7.27 8.35 7.07 8.37 L 6.45 10.17 L 9.77 10.19 M 5.37 10.17 L 5.89 8.66 C 5.16 8.96 4.57 9.46 4.14 10.17 L 5.37 10.17" fill="currentColor" /></svg>