<svg height="24" viewBox="0 0 24 24" width="24" xmlns="http://www.w3.org/2000/svg"><path d="M 10.3 15.88 C 10.1 15.88 9.94 15.72 9.94 15.52 C 9.94 15.32 10.1 15.16 10.3 15.16 L 13.78 15.16 C 13.98 15.16 14.14 15.32 14.14 15.52 C 14.14 15.72 13.98 15.88 13.78 15.88 L 10.3 15.88 M 7.98 12.4 C 7.78 12.4 7.62 12.24 7.62 12.04 C 7.62 11.84 7.78 11.68 7.98 11.68 L 16.11 11.68 C 16.31 11.68 16.47 11.84 16.47 12.04 C 16.47 12.24 16.31 12.4 16.11 12.4 L 7.98 12.4 M 5.66 8.91 C 5.46 8.91 5.3 8.75 5.3 8.55 C 5.3 8.35 5.46 8.19 5.66 8.19 L 18.43 8.19 C 18.63 8.19 18.79 8.35 18.79 8.55 C 18.79 8.75 18.63 8.91 18.43 8.91 L 5.66 8.91" fill="currentColor" /></svg>