<svg height="24" viewBox="0 0 24 24" width="24" xmlns="http://www.w3.org/2000/svg"><path d="M 10.1 16.3 C 9.8 16.3 9.6 16.1 9.6 15.8 C 9.6 15.5 9.8 15.3 10.1 15.3 L 13.9 15.3 C 14.2 15.3 14.4 15.5 14.4 15.8 C 14.4 16.1 14.2 16.3 13.9 16.3 L 10.1 16.3 M 7.5 12.5 C 7.2 12.5 7 12.3 7 12 C 7 11.7 7.2 11.5 7.5 11.5 L 16.5 11.5 C 16.8 11.5 17 11.7 17 12 C 17 12.3 16.8 12.5 16.5 12.5 L 7.5 12.5 M 5 8.7 C 4.7 8.7 4.5 8.5 4.5 8.2 C 4.5 7.9 4.7 7.7 5 7.7 L 19 7.7 C 19.3 7.7 19.5 7.9 19.5 8.2 C 19.5 8.5 19.3 8.7 19 8.7 L 5 8.7" fill="currentColor" /></svg>