<svg height="24" viewBox="0 0 24 24" width="24" xmlns="http://www.w3.org/2000/svg"><path d="M 16.24 14.5 C 16.04 14.3 15.73 14.3 15.53 14.5 C 15.33 14.7 15.33 15.01 15.53 15.21 L 18.29 17.97 C 18.36 18.04 18.4 18.14 18.4 18.25 C 18.4 18.35 18.36 18.45 18.29 18.53 C 18.14 18.68 17.89 18.68 17.74 18.53 L 12.49 13.28 L 7.31 18.46 C 7.16 18.61 6.91 18.61 6.76 18.46 C 6.61 18.31 6.61 18.06 6.76 17.91 L 10.03 14.64 C 10.23 14.44 10.23 14.13 10.03 13.93 C 9.83 13.73 9.52 13.73 9.32 13.93 L 6.05 17.2 C 5.79 17.46 5.64 17.81 5.64 18.19 C 5.64 18.56 5.78 18.91 6.05 19.18 C 6.59 19.72 7.48 19.72 8.02 19.18 L 12.49 14.71 L 17.03 19.25 C 17.29 19.51 17.64 19.66 18.02 19.66 C 18.4 19.66 18.74 19.51 19.01 19.25 C 19.27 18.99 19.42 18.64 19.42 18.26 C 19.42 17.89 19.28 17.54 19.01 17.27 L 16.24 14.5" fill="currentColor" /><path d="M 11.8 9.88 C 12.04 10.12 12.04 10.52 11.8 10.76 L 11.44 11.12 L 14.43 14.11 L 18.84 9.7 C 20.1 8.44 20.1 6.38 18.84 5.11 L 18.48 4.75 L 14.06 9.17 C 13.86 9.37 13.86 9.68 14.06 9.88 C 14.26 10.08 14.57 10.08 14.77 9.88 L 18.44 6.21 C 18.98 7.07 18.87 8.23 18.12 8.98 L 14.42 12.68 L 12.79 11.05 C 13.1 10.44 13 9.67 12.49 9.16 L 7.84 4.5 C 7.64 4.3 7.33 4.3 7.13 4.5 C 6.93 4.7 6.93 5.01 7.13 5.21 L 11.8 9.88 M 10.17 13.14 C 10.61 13.14 11.02 12.97 11.32 12.66 C 11.52 12.46 11.52 12.15 11.32 11.95 C 11.12 11.75 10.81 11.75 10.61 11.95 C 10.37 12.19 9.96 12.19 9.73 11.95 L 5.06 7.28 C 4.86 7.08 4.55 7.08 4.35 7.28 C 4.15 7.48 4.15 7.79 4.35 7.99 L 9.02 12.66 C 9.32 12.97 9.73 13.14 10.17 13.14 M 9.38 10.3 C 9.48 10.4 9.61 10.45 9.74 10.45 C 9.87 10.45 10 10.4 10.1 10.3 C 10.3 10.1 10.3 9.79 10.1 9.59 L 6.42 5.92 C 6.22 5.72 5.91 5.72 5.71 5.92 C 5.51 6.12 5.51 6.43 5.71 6.63 L 9.38 10.3" fill="currentColor" /></svg>