<svg height="24" viewBox="0 0 24 24" width="24" xmlns="http://www.w3.org/2000/svg"><path d="M 12.1 8.14 C 9.95 8.14 8.19 9.89 8.19 12.04 C 8.19 14.2 9.94 15.95 12.1 15.95 C 14.26 15.95 16.01 14.2 16.01 12.04 C 16.01 9.89 14.26 8.14 12.1 8.14 M 12.1 15.23 C 10.34 15.23 8.91 13.8 8.91 12.04 C 8.91 10.28 10.34 8.85 12.1 8.85 C 13.86 8.85 15.29 10.28 15.29 12.04 C 15.29 13.8 13.86 15.23 12.1 15.23" fill="currentColor" /><path d="M 21.52 5.18 C 21.32 5.18 21.16 5.34 21.16 5.54 L 21.16 7.93 L 20.72 7.93 L 20.72 5.56 C 20.72 5.36 20.56 5.2 20.36 5.2 C 20.16 5.2 20 5.36 20 5.56 L 20 7.93 L 19.55 7.93 L 19.55 5.56 C 19.55 5.36 19.39 5.2 19.19 5.2 C 18.99 5.2 18.83 5.36 18.83 5.56 L 18.83 7.93 L 18.39 7.93 L 18.39 5.54 C 18.39 5.34 18.23 5.18 18.03 5.18 C 17.83 5.18 17.67 5.34 17.67 5.54 L 17.67 9.26 C 16.64 7.21 14.53 5.8 12.08 5.8 C 9.53 5.8 7.33 7.34 6.36 9.55 C 6.37 9.46 6.38 9.36 6.38 9.26 L 6.38 7.94 C 6.38 6.44 5.43 5.21 4.28 5.21 C 3.12 5.21 2.18 6.44 2.18 7.94 L 2.18 9.26 C 2.18 10.21 2.56 11.08 3.17 11.57 L 3.17 18.52 C 3.17 18.72 3.33 18.88 3.53 18.88 L 5.03 18.88 C 5.23 18.88 5.39 18.72 5.39 18.52 L 5.39 11.57 C 5.61 11.39 5.8 11.17 5.95 10.91 C 5.88 11.28 5.84 11.65 5.84 12.04 C 5.84 15.49 8.64 18.29 12.09 18.29 C 15.53 18.29 18.33 15.49 18.33 12.04 C 18.33 11.75 18.31 11.47 18.27 11.19 C 18.39 11.34 18.52 11.48 18.66 11.6 L 18.66 18.55 C 18.66 18.75 18.82 18.91 19.02 18.91 L 20.52 18.91 C 20.72 18.91 20.88 18.75 20.88 18.55 L 20.88 11.6 C 21.49 11.1 21.87 10.24 21.87 9.28 L 21.87 5.53 C 21.87 5.33 21.71 5.17 21.51 5.17 M 5.68 9.25 C 5.68 10.04 5.36 10.75 4.85 11.08 C 4.75 11.15 4.69 11.26 4.69 11.38 L 4.69 18.15 L 3.91 18.15 L 3.91 11.38 C 3.91 11.26 3.85 11.15 3.75 11.08 C 3.25 10.75 2.92 10.03 2.92 9.25 L 2.92 7.93 C 2.92 6.84 3.55 5.92 4.3 5.92 C 5.05 5.92 5.68 6.84 5.68 7.93 L 5.68 9.25 M 12.1 17.57 C 9.05 17.57 6.58 15.09 6.58 12.04 C 6.58 8.99 9.06 6.51 12.1 6.51 C 15.15 6.51 17.63 8.99 17.63 12.04 C 17.63 15.09 15.15 17.57 12.1 17.57 M 20.34 11.11 C 20.24 11.18 20.18 11.29 20.18 11.41 L 20.18 18.18 L 19.4 18.18 L 19.4 11.41 C 19.4 11.29 19.34 11.18 19.24 11.11 C 18.74 10.78 18.41 10.06 18.41 9.28 L 18.41 8.64 L 21.17 8.64 L 21.17 9.28 C 21.17 10.06 20.85 10.78 20.34 11.11" fill="currentColor" /></svg>