<svg height="24" viewBox="0 0 24 24" width="24" xmlns="http://www.w3.org/2000/svg"><path d="M 12 8.36 C 10.03 8.36 8.42 9.97 8.42 11.94 C 8.42 13.91 10.03 15.52 12 15.52 C 13.97 15.52 15.58 13.91 15.58 11.94 C 15.58 9.97 13.97 8.36 12 8.36 M 12 14.09 C 10.82 14.09 9.85 13.13 9.85 11.94 C 9.85 10.74 10.79 9.79 12 9.79 C 13.2 9.79 14.15 10.73 14.15 11.94 C 14.15 13.13 13.18 14.09 12 14.09 M 15.64 7.49 C 15.13 7.49 14.72 7.9 14.72 8.41 C 14.72 8.92 15.13 9.33 15.64 9.33 C 16.15 9.33 16.56 8.92 16.56 8.41 C 16.56 7.9 16.15 7.49 15.64 7.49" fill="currentColor" /><path d="M 17.75 6.26 C 17.06 5.52 16.04 5.13 14.78 5.13 L 9.17 5.13 C 6.75 5.13 5.13 6.76 5.13 9.17 L 5.13 14.78 C 5.13 15.97 5.55 17.04 6.32 17.81 C 7.08 18.51 8.08 18.88 9.23 18.88 L 14.78 18.88 C 15.89 18.88 16.92 18.51 17.75 17.81 C 18.49 17.12 18.88 16.1 18.88 14.84 L 18.88 9.17 C 18.88 8 18.49 6.99 17.75 6.26 M 17.44 14.83 C 17.44 15.64 17.19 16.25 16.66 16.72 C 16.23 17.15 15.57 17.38 14.77 17.38 L 9.22 17.38 C 8.42 17.38 7.76 17.15 7.33 16.72 C 6.87 16.26 6.61 15.56 6.61 14.77 L 6.61 9.17 C 6.61 8.34 6.85 7.71 7.33 7.28 C 7.76 6.85 8.42 6.62 9.22 6.62 L 14.83 6.62 C 15.66 6.62 16.29 6.86 16.72 7.34 C 17.18 7.8 17.44 8.48 17.44 9.23 L 17.44 14.83" fill="currentColor" /></svg>