<svg height="24" viewBox="0 0 24 24" width="24" xmlns="http://www.w3.org/2000/svg"><path d="M 12 9 C 13.66 9 15 10.34 15 12 L 15 12 C 15 13.66 13.66 15 12 15 L 12 15 C 10.34 15 9 13.66 9 12 L 9 12 C 9 10.34 10.34 9 12 9 L 12 9" fill="currentColor" /><path d="M 3 6 C 3 4.34 4.34 3 6 3 L 18 3 C 19.66 3 21 4.34 21 6 L 21 18 C 21 19.66 19.66 21 18 21 L 6 21 C 4.34 21 3 19.66 3 18 L 3 6 M 18.5 4.5 C 17.95 4.5 17.5 4.95 17.5 5.5 L 17.5 5.5 C 17.5 6.05 17.95 6.5 18.5 6.5 L 18.5 6.5 C 19.05 6.5 19.5 6.05 19.5 5.5 L 19.5 5.5 C 19.5 4.95 19.05 4.5 18.5 4.5 L 18.5 4.5 M 7 12 C 7 14.76 9.24 17 12 17 L 12 17 C 14.76 17 17 14.76 17 12 L 17 12 C 17 9.24 14.76 7 12 7 L 12 7 C 9.24 7 7 9.24 7 12 L 7 12" fill="currentColor" /></svg>