<svg height="24" viewBox="0 0 24 24" width="24" xmlns="http://www.w3.org/2000/svg"><path d="M 12 15 C 13.66 15 15 13.66 15 12 L 15 12 C 15 10.34 13.66 9 12 9 L 12 9 C 10.34 9 9 10.34 9 12 L 9 12 C 9 13.66 10.34 15 12 15 L 12 15" fill="currentColor" /><path d="M 3 6 C 3 4.34 4.34 3 6 3 L 18 3 C 19.66 3 21 4.34 21 6 L 21 18 C 21 19.66 19.66 21 18 21 L 6 21 C 4.34 21 3 19.66 3 18 L 3 6 M 7 12 C 7 14.76 9.24 17 12 17 L 12 17 C 14.76 17 17 14.76 17 12 L 17 12 C 17 9.24 14.76 7 12 7 L 12 7 C 9.24 7 7 9.24 7 12 L 7 12 M 18.5 4.25 C 17.81 4.25 17.25 4.81 17.25 5.5 L 17.25 5.5 C 17.25 6.19 17.81 6.75 18.5 6.75 L 18.5 6.75 C 19.19 6.75 19.75 6.19 19.75 5.5 L 19.75 5.5 C 19.75 4.81 19.19 4.25 18.5 4.25 L 18.5 4.25" fill="currentColor" /></svg>