<svg height="24" viewBox="0 0 24 24" width="24" xmlns="http://www.w3.org/2000/svg"><path d="M 15.71 9.09 C 15.71 9.46 15.41 9.76 15.04 9.76 C 14.67 9.76 14.37 9.46 14.37 9.09 C 14.37 8.72 14.67 8.42 15.04 8.42 C 15.41 8.42 15.71 8.72 15.71 9.09 M 12.04 9.13 C 10.47 9.13 9.18 10.42 9.18 11.99 C 9.18 13.56 10.47 14.85 12.04 14.85 C 13.61 14.85 14.9 13.56 14.9 11.99 C 14.9 10.42 13.62 9.13 12.04 9.13 M 12.04 13.85 C 11.04 13.85 10.18 13.04 10.18 11.99 C 10.18 10.94 10.99 10.13 12.04 10.13 C 13.09 10.13 13.9 10.94 13.9 11.99 C 13.9 13.04 13.05 13.85 12.04 13.85" fill="currentColor" /><path d="M 14.33 6.46 C 15.28 6.46 16.14 6.75 16.71 7.37 C 17.33 7.99 17.62 8.8 17.62 9.71 L 17.62 14.38 C 17.62 15.33 17.33 16.19 16.71 16.76 C 16.09 17.29 15.28 17.62 14.33 17.62 L 9.76 17.62 C 8.85 17.62 8.04 17.33 7.42 16.76 C 6.8 16.14 6.47 15.28 6.47 14.33 L 6.47 9.71 C 6.47 7.75 7.76 6.47 9.71 6.47 L 14.33 6.47 M 15.95 16 C 16.38 15.62 16.62 15.09 16.62 14.38 L 16.62 9.76 C 16.62 9.09 16.38 8.52 16 8.14 C 15.62 7.71 15.05 7.52 14.38 7.52 L 9.76 7.52 C 9.09 7.52 8.52 7.71 8.14 8.09 C 7.71 8.47 7.52 9.04 7.52 9.72 L 7.52 14.35 C 7.52 15.06 7.76 15.64 8.14 16.02 C 8.52 16.4 9.1 16.59 9.77 16.59 L 14.34 16.59 C 15.01 16.59 15.58 16.4 15.96 16.02" fill="currentColor" /></svg>