<svg height="24" viewBox="0 0 24 24" width="24" xmlns="http://www.w3.org/2000/svg"><path d="M 9.23 19.56 C 9.04 19.54 8.87 19.45 8.74 19.32 L 8.66 19.22 L 7.06 16.96 L 4.78 15.34 C 4.59 15.2 4.47 15 4.44 14.77 C 4.41 14.56 4.47 14.36 4.62 14.17 C 4.67 14.1 4.73 14.03 4.83 13.96 C 4.94 13.88 5.04 13.84 5.34 13.84 C 5.74 13.84 6.52 13.92 7.81 14.09 C 8 13.9 8.15 13.74 8.27 13.61 C 8.35 13.53 8.41 13.46 8.46 13.41 L 8.68 13.15 C 9.24 12.51 9.73 11.96 10.18 11.46 C 9.68 11.22 9.05 10.94 8.42 10.64 L 7.25 10.1 C 5.49 9.28 5.02 9.04 4.85 8.87 C 4.76 8.79 4.74 8.71 4.72 8.66 C 4.64 8.34 4.78 8.13 4.89 7.98 L 5.07 7.72 C 5.43 7.21 6.03 6.9 6.68 6.9 C 6.75 6.9 6.81 6.9 6.88 6.91 C 6.88 6.91 13.9 7.52 13.95 7.52 C 14 7.52 14.03 7.5 14.05 7.48 C 14.56 7 15.15 6.46 15.85 5.84 C 16.13 5.57 16.76 5.14 17.33 4.85 C 17.88 4.57 18.31 4.43 18.66 4.43 C 18.92 4.43 19.13 4.51 19.29 4.67 C 19.71 5.08 19.67 5.71 19.16 6.68 C 18.87 7.25 18.44 7.89 18.16 8.17 C 17.54 8.85 17 9.44 16.52 9.96 C 16.5 9.99 16.48 10.03 16.49 10.06 L 17.1 17.12 C 17.17 17.84 16.86 18.54 16.28 18.93 L 16.03 19.1 C 15.91 19.18 15.75 19.29 15.53 19.29 C 15.47 19.29 15.41 19.28 15.35 19.27 C 15.3 19.26 15.22 19.24 15.13 19.15 C 14.96 18.98 14.71 18.48 13.9 16.75 C 13.53 15.95 13.08 14.97 12.56 13.83 C 12.07 14.25 11.56 14.7 10.96 15.23 L 10.69 15.46 L 10.57 15.55 C 10.45 15.67 10.21 15.88 9.93 16.1 C 10.24 18.85 10.16 18.98 10.03 19.16 C 9.96 19.26 9.89 19.32 9.82 19.37 C 9.66 19.49 9.49 19.55 9.31 19.55 L 9.23 19.56 M 7.7 16.18 C 7.75 16.22 7.79 16.26 7.82 16.3 L 9.12 18.14 C 9.1 17.99 9.08 17.81 9.05 17.58 C 9 17.19 8.94 16.67 8.85 15.99 C 8.83 15.8 8.9 15.62 9.05 15.51 C 9.4 15.25 9.74 14.95 9.88 14.82 L 10.16 14.58 C 11.05 13.79 11.75 13.18 12.39 12.6 C 13.16 11.9 13.79 11.31 14.41 10.68 L 14.79 10.29 C 15.05 10.03 15.31 9.76 15.58 9.47 C 16.1 8.91 16.7 8.26 17.4 7.48 C 17.88 7 18.49 5.81 18.56 5.45 C 18.08 5.54 16.96 6.15 16.53 6.58 C 15.78 7.26 15.16 7.82 14.62 8.32 L 14.51 8.42 C 13.36 9.51 12.48 10.4 11.38 11.62 C 10.78 12.28 10.2 12.94 9.54 13.69 L 9.2 14.08 C 9.08 14.21 8.77 14.54 8.47 14.96 C 8.38 15.09 8.22 15.17 8.06 15.17 C 6.96 15.02 6.29 14.95 5.87 14.91 L 7.7 16.18 M 13.31 13.14 C 14.84 16.44 15.44 17.68 15.68 18.14 C 15.98 17.92 16.13 17.58 16.09 17.22 L 15.55 10.98 L 14.93 11.61 L 14.14 12.38 L 13.31 13.14 M 5.85 8.37 C 6.06 8.45 6.44 8.63 7.14 8.95 C 7.93 9.31 9.13 9.87 10.93 10.68 C 11.59 9.91 12.25 9.21 13.11 8.38 C 11.92 8.29 6.82 7.92 6.68 7.92 C 6.36 7.92 6.07 8.07 5.9 8.31 L 5.85 8.37" fill="currentColor" /></svg>