<svg height="24" viewBox="0 0 24 24" width="24" xmlns="http://www.w3.org/2000/svg"><path d="M 9.25 19.73 C 9.23 19.73 9.2 19.73 9.18 19.72 C 9.03 19.7 8.89 19.63 8.78 19.52 C 8.76 19.49 8.73 19.47 8.71 19.43 L 7.06 17.1 C 7.04 17.07 7.02 17.05 6.99 17.03 L 4.66 15.38 C 4.5 15.27 4.4 15.09 4.37 14.91 C 4.35 14.74 4.4 14.57 4.52 14.41 C 4.56 14.36 4.61 14.29 4.7 14.23 C 4.76 14.18 4.82 14.14 5.13 14.14 C 5.54 14.14 6.37 14.22 7.72 14.4 L 7.72 14.4 C 7.79 14.4 7.84 14.38 7.87 14.34 C 8.11 14.04 8.34 13.78 8.48 13.63 C 8.51 13.59 8.54 13.55 8.57 13.52 L 8.71 13.35 C 9.34 12.64 9.87 12.03 10.37 11.48 C 10.39 11.46 10.39 11.44 10.39 11.42 C 10.39 11.4 10.37 11.38 10.35 11.37 C 9.5 10.98 8.26 10.42 7.17 9.92 C 5.41 9.1 4.88 8.84 4.73 8.68 C 4.67 8.62 4.66 8.57 4.65 8.52 C 4.58 8.27 4.7 8.1 4.8 7.95 L 4.98 7.69 C 5.32 7.2 5.89 6.9 6.52 6.9 C 6.58 6.9 6.65 6.9 6.71 6.91 L 14.04 7.54 C 14.05 7.54 14.06 7.54 14.07 7.54 C 14.15 7.54 14.23 7.51 14.28 7.46 C 14.81 6.96 15.42 6.41 16.14 5.76 C 16.42 5.48 17.07 5.05 17.64 4.75 C 18.19 4.47 18.61 4.33 18.94 4.33 C 19.16 4.33 19.34 4.4 19.47 4.53 L 19.53 4.59 C 19.85 4.91 19.78 5.51 19.31 6.42 C 19.02 6.99 18.58 7.64 18.31 7.92 C 17.67 8.63 17.11 9.24 16.61 9.78 C 16.55 9.85 16.52 9.93 16.53 10.02 L 17.16 17.35 C 17.23 18.04 16.93 18.7 16.39 19.08 L 16.13 19.26 C 16.02 19.34 15.89 19.43 15.71 19.43 C 15.66 19.43 15.62 19.42 15.57 19.41 C 15.52 19.4 15.47 19.39 15.41 19.33 C 15.25 19.17 14.99 18.65 14.17 16.89 C 13.77 16.03 13.28 14.96 12.72 13.71 C 12.71 13.69 12.69 13.67 12.67 13.67 C 12.67 13.67 12.67 13.67 12.66 13.67 C 12.63 13.67 12.62 13.68 12.61 13.69 C 12.06 14.18 11.47 14.71 10.75 15.34 L 10.58 15.49 C 10.54 15.52 10.51 15.55 10.47 15.58 C 10.32 15.72 10.06 15.96 9.76 16.19 C 9.71 16.23 9.69 16.28 9.7 16.34 C 10.06 19.09 9.98 19.22 9.88 19.36 C 9.82 19.45 9.76 19.5 9.7 19.54 C 9.57 19.64 9.42 19.69 9.28 19.69 M 7.48 16.52 C 7.52 16.54 7.54 16.57 7.57 16.61 L 9.25 18.98 C 9.25 18.78 9.22 18.13 8.95 16.17 C 8.93 16.04 8.99 15.91 9.09 15.83 C 9.49 15.54 9.84 15.22 9.97 15.1 C 9.98 15.09 9.99 15.08 10.01 15.07 C 10.05 15.04 10.08 15.02 10.1 14.99 L 10.25 14.86 C 11.18 14.04 11.9 13.41 12.56 12.81 C 13.37 12.08 14.02 11.46 14.67 10.81 C 14.8 10.68 14.93 10.54 15.06 10.41 C 15.33 10.14 15.6 9.85 15.88 9.55 C 16.42 8.97 17.04 8.29 17.77 7.48 C 18.29 6.96 19.13 5.42 19 5.11 L 18.96 5.07 C 18.95 5.07 18.92 5.06 18.9 5.06 C 18.48 5.06 17.11 5.8 16.61 6.29 C 15.83 6.99 15.19 7.58 14.64 8.09 L 14.53 8.2 C 13.32 9.33 12.41 10.27 11.27 11.52 L 11.2 11.59 C 10.61 12.24 9.97 12.97 9.22 13.81 L 9.08 13.97 C 9.06 14 9.03 14.03 9 14.06 C 8.99 14.07 8.98 14.08 8.98 14.09 C 8.84 14.23 8.52 14.58 8.24 14.98 C 8.17 15.07 8.06 15.12 7.95 15.12 C 7.93 15.12 7.92 15.12 7.9 15.12 C 5.97 14.86 5.31 14.82 5.08 14.82 L 7.45 16.5 M 15.77 10.68 C 15.63 10.83 15.5 10.96 15.37 11.09 L 14.95 11.51 C 14.82 11.64 14.69 11.76 14.56 11.89 L 14.13 12.31 C 14 12.44 13.86 12.56 13.72 12.69 L 13.21 13.16 C 15.01 17.14 15.6 18.33 15.78 18.66 L 15.97 18.53 C 16.31 18.3 16.49 17.88 16.44 17.45 L 15.85 10.6 L 15.76 10.69 M 5.43 8.3 C 5.76 8.48 6.95 9.07 10.94 10.86 C 11.83 9.88 12.6 9.09 13.49 8.23 L 6.64 7.63 C 6.6 7.63 6.55 7.63 6.52 7.63 C 6.13 7.63 5.77 7.81 5.56 8.11 L 5.43 8.31" fill="currentColor" /></svg>