<svg height="24" viewBox="0 0 24 24" width="24" xmlns="http://www.w3.org/2000/svg"><path d="M 11.7 7.25 C 11.9 7.25 12.04 7.08 12.04 6.88 L 12.04 4.83 C 12.04 4.64 11.89 4.49 11.7 4.49 C 11.51 4.49 11.35 4.64 11.35 4.83 L 11.35 6.88 C 11.35 7.08 11.5 7.25 11.7 7.25 M 7.92 5.5 C 7.74 5.59 7.68 5.8 7.79 5.97 L 8.81 7.76 C 8.9 7.87 9 7.94 9.13 7.94 C 9.19 7.94 9.23 7.93 9.28 7.91 L 9.31 7.9 C 9.48 7.79 9.53 7.58 9.44 7.4 L 8.41 5.63 C 8.32 5.46 8.11 5.39 7.94 5.5 M 11.7 8.48 C 9.74 8.48 8.14 10.08 8.14 12.04 C 8.14 14.01 9.74 15.6 11.7 15.6 C 11.9 15.6 12.05 15.75 12.05 15.94 C 12.05 16.16 11.9 16.31 11.7 16.31 C 9.35 16.31 7.43 14.39 7.43 12.04 C 7.43 9.69 9.35 7.77 11.7 7.77 C 11.9 7.77 12.05 7.92 12.05 8.12 C 12.05 8.34 11.9 8.49 11.7 8.49 M 5.16 8.27 C 5.06 8.44 5.12 8.66 5.29 8.75 L 7.06 9.78 C 7.13 9.8 7.19 9.82 7.23 9.82 C 7.36 9.82 7.49 9.76 7.56 9.65 C 7.65 9.48 7.6 9.26 7.43 9.15 L 5.64 8.14 C 5.47 8.03 5.25 8.1 5.16 8.27 M 4.49 12.39 C 4.3 12.39 4.15 12.24 4.15 12.04 C 4.15 11.85 4.3 11.7 4.49 11.7 L 6.54 11.7 C 6.76 11.7 6.91 11.85 6.91 12.04 C 6.91 12.24 6.76 12.39 6.54 12.39 L 4.49 12.39 M 7.55 14.44 C 7.64 14.61 7.59 14.83 7.42 14.91 L 5.63 15.95 C 5.59 15.97 5.52 15.99 5.46 15.99 C 5.33 15.99 5.22 15.92 5.16 15.81 C 5.05 15.64 5.12 15.42 5.29 15.34 L 7.06 14.3 C 7.24 14.21 7.45 14.26 7.56 14.43 M 9.3 16.18 C 9.47 16.29 9.52 16.5 9.43 16.68 L 8.39 18.45 C 8.33 18.56 8.22 18.63 8.09 18.63 C 8.02 18.63 7.98 18.63 7.92 18.59 C 7.74 18.5 7.68 18.27 7.79 18.11 L 8.81 16.32 C 8.92 16.15 9.13 16.11 9.31 16.19" fill="currentColor" /><path d="M 9.36 12.04 C 9.36 11.7 9.45 11.35 9.6 11.03 C 9.69 10.86 9.6 10.64 9.43 10.55 C 9.25 10.46 9.04 10.53 8.95 10.72 C 8.76 11.15 8.65 11.58 8.65 12.04 C 8.65 12.84 8.95 13.61 9.54 14.2 C 9.63 14.26 9.71 14.29 9.8 14.29 C 9.89 14.29 9.97 14.27 10.06 14.2 C 10.19 14.05 10.19 13.83 10.06 13.68 C 9.61 13.25 9.37 12.65 9.37 12.04 M 10.36 10.15 C 10.29 10.19 10.23 10.21 10.15 10.21 C 10.04 10.21 9.93 10.15 9.87 10.06 C 9.76 9.89 9.8 9.67 9.96 9.56 C 10.26 9.35 10.56 9.19 10.91 9.11 C 11.11 9.04 11.3 9.18 11.36 9.35 C 11.4 9.55 11.3 9.74 11.1 9.8 C 10.84 9.86 10.58 9.97 10.37 10.14 M 12.04 19.25 C 12.04 19.44 11.89 19.59 11.7 19.59 C 11.51 19.59 11.35 19.44 11.35 19.25 L 11.35 17.2 C 11.35 16.99 11.5 16.83 11.7 16.83 C 11.9 16.83 12.04 16.98 12.04 17.2 L 12.04 19.25" fill="currentColor" /></svg>