<svg height="24" viewBox="0 0 24 24" width="24" xmlns="http://www.w3.org/2000/svg"><path d="M 9.41 16.46 C 9.33 16.42 9.24 16.4 9.15 16.4 C 8.96 16.4 8.79 16.49 8.69 16.65 L 7.58 18.61 C 7.5 18.72 7.48 18.86 7.51 18.99 C 7.55 19.13 7.64 19.25 7.75 19.31 C 7.85 19.38 7.93 19.38 8.01 19.38 C 8.19 19.38 8.36 19.29 8.45 19.13 L 9.6 17.17 C 9.74 16.91 9.66 16.61 9.41 16.46 M 6.84 12 C 6.84 11.71 6.61 11.49 6.31 11.49 L 4.05 11.49 C 3.77 11.49 3.54 11.71 3.54 12 C 3.54 12.28 3.76 12.51 4.05 12.51 L 6.31 12.51 C 6.61 12.51 6.84 12.29 6.84 12 M 7.53 14.57 C 7.43 14.41 7.26 14.32 7.07 14.32 C 6.98 14.32 6.89 14.34 6.81 14.38 L 4.87 15.52 C 4.75 15.58 4.65 15.69 4.62 15.82 C 4.58 15.96 4.6 16.1 4.68 16.22 C 4.78 16.38 4.94 16.47 5.12 16.47 C 5.23 16.47 5.32 16.43 5.37 16.41 L 7.34 15.27 C 7.46 15.21 7.55 15.1 7.58 14.97 C 7.62 14.85 7.6 14.71 7.53 14.57 M 8.71 7.37 C 8.84 7.53 8.99 7.61 9.17 7.61 C 9.25 7.61 9.3 7.59 9.43 7.54 C 9.66 7.39 9.74 7.09 9.6 6.82 L 8.47 4.88 C 8.38 4.71 8.21 4.61 8.03 4.61 C 7.94 4.61 7.84 4.64 7.77 4.68 C 7.65 4.74 7.56 4.85 7.52 4.98 C 7.48 5.12 7.5 5.26 7.58 5.38 L 8.71 7.37 M 4.86 8.47 L 6.85 9.63 C 6.93 9.65 7 9.68 7.07 9.68 C 7.26 9.68 7.44 9.58 7.54 9.42 C 7.67 9.16 7.59 8.85 7.35 8.7 L 5.38 7.59 C 5.29 7.54 5.2 7.51 5.11 7.51 C 4.92 7.51 4.76 7.61 4.68 7.77 C 4.6 7.89 4.58 8.03 4.62 8.17 C 4.66 8.3 4.75 8.41 4.86 8.47 M 12.5 7.67 C 12.5 7.39 12.28 7.16 11.99 7.16 C 9.32 7.16 7.15 9.33 7.15 12 C 7.15 14.67 9.32 16.84 11.99 16.84 C 12.28 16.84 12.5 16.61 12.5 16.31 C 12.5 16.03 12.28 15.8 11.99 15.8 C 9.9 15.8 8.19 14.1 8.19 12 C 8.19 9.9 9.89 8.2 11.99 8.2 C 12.28 8.2 12.5 7.97 12.5 7.67 M 11.99 17.15 C 11.7 17.15 11.48 17.38 11.48 17.68 L 11.48 19.94 C 11.48 20.22 11.7 20.45 11.99 20.45 C 12.27 20.45 12.5 20.23 12.5 19.94 L 12.5 17.68 C 12.5 17.38 12.28 17.15 11.99 17.15 M 11.99 3.55 C 11.71 3.55 11.48 3.77 11.48 4.06 L 11.48 6.32 C 11.48 6.61 11.71 6.85 11.99 6.85 C 12.26 6.85 12.5 6.61 12.5 6.32 L 12.5 4.05 C 12.5 3.77 12.28 3.55 11.99 3.55" fill="currentColor" /><path d="M 9.6 11 C 9.33 10.94 9.06 11.12 9.01 11.39 C 8.97 11.59 8.95 11.79 8.95 12 C 8.95 12.64 9.15 13.25 9.51 13.77 C 9.6 13.9 9.71 14.03 9.82 14.14 C 9.92 14.24 10.05 14.29 10.18 14.29 C 10.31 14.29 10.44 14.24 10.53 14.15 C 10.73 13.95 10.73 13.64 10.54 13.44 C 10.46 13.36 10.39 13.28 10.33 13.19 C 10.08 12.84 9.95 12.43 9.95 12.01 C 9.95 11.87 9.96 11.73 9.99 11.6 C 10.05 11.32 9.87 11.05 9.6 11 M 11.33 9.49 C 11.21 9.24 10.91 9.14 10.66 9.26 C 10.41 9.38 10.17 9.54 9.97 9.73 C 9.76 9.92 9.75 10.23 9.93 10.44 C 10.03 10.55 10.17 10.61 10.3 10.61 C 10.42 10.61 10.54 10.57 10.64 10.48 C 10.78 10.35 10.94 10.25 11.11 10.17 C 11.35 10.04 11.45 9.74 11.33 9.49" fill="currentColor" /></svg>