<svg height="24" viewBox="0 0 24 24" width="24" xmlns="http://www.w3.org/2000/svg"><path d="M 14.04 14.49 L 18.17 18.62 L 18.2 18.62 L 18.61 18.21 C 18.63 18.19 18.63 18.15 18.61 18.13 L 14.54 14.06 L 14.52 14.01 L 14.54 13.98 C 15.34 13.01 15.77 11.85 15.77 10.61 C 15.79 9.26 15.27 7.98 14.32 7 C 13.34 6.01 12.03 5.46 10.63 5.46 C 7.79 5.46 5.48 7.77 5.48 10.6 C 5.48 13.44 7.79 15.74 10.63 15.74 C 11.87 15.74 13.04 15.32 14.02 14.51 L 14.05 14.48 M 6.19 10.65 C 6.19 8.19 8.19 6.18 10.66 6.18 C 13.12 6.18 15.12 8.18 15.12 10.65 C 15.12 11.85 14.66 12.98 13.82 13.82 C 13 14.64 11.86 15.12 10.7 15.12 C 8.21 15.12 6.19 13.11 6.19 10.65" fill="currentColor" /></svg>