<svg height="24" viewBox="0 0 24 24" width="24" xmlns="http://www.w3.org/2000/svg"><path d="M 18.7 19.39 L 18.67 19.37 C 18.64 19.34 15.57 16.28 14.17 14.88 C 13.1 15.77 11.81 16.24 10.42 16.24 C 7.21 16.24 4.61 13.63 4.61 10.43 C 4.61 7.22 7.22 4.62 10.42 4.62 C 12 4.62 13.48 5.24 14.59 6.36 C 15.67 7.46 16.26 8.91 16.23 10.43 C 16.23 11.79 15.77 13.08 14.91 14.16 L 19.35 18.65 L 19.37 18.73 C 19.37 18.81 19.35 18.86 19.32 18.9 L 18.9 19.32 L 18.8 19.39 L 18.7 19.39 M 10.48 5.68 C 7.84 5.68 5.69 7.83 5.69 10.47 C 5.69 13.11 7.86 15.26 10.52 15.26 C 11.76 15.26 12.98 14.75 13.86 13.87 C 14.76 12.97 15.25 11.77 15.25 10.48 C 15.26 7.83 13.12 5.68 10.48 5.68" fill="currentColor" /></svg>