<svg height="24" viewBox="0 0 24 24" width="24" xmlns="http://www.w3.org/2000/svg"><path d="M 11.7 4.83 C 11.7 4.64 11.85 4.49 12.04 4.49 C 12.24 4.49 12.39 4.64 12.39 4.83 L 12.39 6.88 C 12.39 7.08 12.24 7.25 12.04 7.25 C 11.85 7.25 11.7 7.08 11.7 6.88 L 11.7 4.83 M 8.14 5.98 C 8.03 5.81 8.1 5.59 8.27 5.51 C 8.44 5.4 8.66 5.47 8.77 5.64 L 9.78 7.41 C 9.89 7.58 9.82 7.8 9.65 7.91 C 9.64 7.91 9.63 7.92 9.62 7.92 C 9.57 7.94 9.54 7.95 9.48 7.95 C 9.35 7.95 9.24 7.88 9.18 7.78 L 8.15 5.99 M 9.95 11.03 C 10.03 10.86 9.95 10.64 9.77 10.56 C 9.6 10.47 9.38 10.54 9.3 10.73 C 9.1 11.16 9 11.59 9 12.05 C 9 12.85 9.3 13.62 9.88 14.21 C 9.97 14.27 10.05 14.3 10.14 14.3 C 10.22 14.3 10.31 14.28 10.4 14.21 C 10.53 14.06 10.53 13.84 10.4 13.7 C 9.95 13.27 9.71 12.66 9.71 12.06 C 9.71 11.71 9.8 11.37 9.95 11.04 M 11.44 9.8 C 11.18 9.87 10.92 9.97 10.71 10.15 C 10.64 10.19 10.58 10.21 10.5 10.21 C 10.39 10.21 10.29 10.15 10.22 10.06 C 10.12 9.89 10.16 9.67 10.31 9.56 C 10.62 9.35 10.91 9.19 11.28 9.11 C 11.45 9.04 11.65 9.18 11.71 9.35 C 11.75 9.54 11.65 9.73 11.45 9.8" fill="currentColor" /><path d="M 12.04 16.31 C 14.4 16.31 16.31 14.39 16.31 12.04 C 16.31 9.69 14.39 7.77 12.04 7.77 C 9.69 7.77 7.77 9.69 7.77 12.04 C 7.77 14.4 9.69 16.31 12.04 16.31 M 8.48 12.04 C 8.48 10.08 10.07 8.48 12.04 8.48 C 14.01 8.48 15.6 10.08 15.6 12.04 C 15.6 14.01 14 15.6 12.04 15.6 C 10.08 15.6 8.48 14 8.48 12.04 M 5.5 8.27 C 5.61 8.1 5.82 8.03 5.97 8.14 L 7.76 9.15 C 7.93 9.26 7.97 9.48 7.89 9.65 C 7.83 9.76 7.7 9.82 7.57 9.82 C 7.53 9.82 7.46 9.8 7.39 9.78 L 5.62 8.75 C 5.45 8.66 5.38 8.45 5.49 8.28 M 7.25 12.04 C 7.25 11.85 7.1 11.69 6.88 11.69 L 4.83 11.69 C 4.64 11.69 4.49 11.84 4.49 12.04 C 4.49 12.24 4.64 12.38 4.83 12.38 L 6.88 12.38 C 7.1 12.38 7.25 12.23 7.25 12.04 M 5.81 15.99 C 5.88 15.99 5.94 15.97 5.98 15.95 L 7.77 14.92 C 7.95 14.83 7.99 14.62 7.9 14.44 C 7.79 14.27 7.58 14.2 7.4 14.31 L 5.63 15.35 C 5.46 15.44 5.39 15.65 5.5 15.82 C 5.56 15.93 5.67 16 5.8 16 M 8.27 18.58 C 8.34 18.62 8.38 18.62 8.44 18.62 C 8.57 18.62 8.68 18.55 8.76 18.44 L 9.78 16.67 C 9.89 16.5 9.82 16.28 9.65 16.17 C 9.48 16.08 9.26 16.15 9.17 16.3 L 8.14 18.09 C 8.03 18.24 8.1 18.48 8.27 18.57 M 12.04 19.59 C 12.24 19.59 12.39 19.44 12.39 19.25 L 12.39 17.2 C 12.39 16.98 12.24 16.83 12.04 16.83 C 11.85 16.83 11.7 16.98 11.7 17.2 L 11.7 19.25 C 11.7 19.45 11.85 19.59 12.04 19.59 M 14.93 16.31 L 15.95 18.1 C 16.06 18.25 15.99 18.49 15.82 18.58 C 15.75 18.62 15.71 18.62 15.65 18.62 C 15.52 18.62 15.41 18.55 15.35 18.44 L 14.32 16.67 C 14.23 16.5 14.28 16.28 14.45 16.17 C 14.63 16.08 14.84 16.13 14.95 16.3 M 14.31 7.4 C 14.22 7.57 14.27 7.79 14.44 7.9 C 14.5 7.92 14.57 7.94 14.61 7.94 C 14.74 7.94 14.87 7.88 14.94 7.77 L 15.96 5.98 C 16.07 5.81 16 5.59 15.83 5.51 C 15.66 5.4 15.44 5.47 15.36 5.64 L 14.32 7.41 M 18.58 15.82 C 18.51 15.93 18.41 16 18.28 16 C 18.21 16 18.15 15.98 18.11 15.96 L 16.32 14.92 C 16.17 14.83 16.1 14.62 16.19 14.45 C 16.3 14.27 16.51 14.23 16.69 14.32 L 18.46 15.36 C 18.64 15.45 18.7 15.66 18.59 15.83 M 18.58 8.27 C 18.49 8.1 18.28 8.03 18.1 8.14 L 16.31 9.16 C 16.16 9.27 16.09 9.48 16.18 9.66 C 16.25 9.77 16.38 9.83 16.5 9.83 C 16.56 9.83 16.6 9.82 16.65 9.8 L 16.67 9.79 L 18.44 8.76 C 18.62 8.67 18.68 8.46 18.57 8.28 M 19.25 11.7 C 19.45 11.7 19.59 11.85 19.59 12.05 C 19.59 12.25 19.44 12.39 19.25 12.39 L 17.2 12.39 C 17.01 12.39 16.83 12.24 16.83 12.05 C 16.83 11.86 17.01 11.7 17.2 11.7 L 19.25 11.7" fill="currentColor" /></svg>