<svg height="24" viewBox="0 0 24 24" width="24" xmlns="http://www.w3.org/2000/svg"><path d="M 12 1 C 11.45 1 11 1.45 11 2 L 11 4 C 11 4.55 11.45 5 12 5 C 12.55 5 13 4.55 13 4 L 13 2 C 13 1.45 12.55 1 12 1 M 19 12 C 19 11.45 19.45 11 20 11 L 22 11 C 22.55 11 23 11.45 23 12 C 23 12.55 22.55 13 22 13 L 20 13 C 19.45 13 19 12.55 19 12 M 5 12 C 5 11.45 4.55 11 4 11 L 2 11 C 1.45 11 1 11.45 1 12 C 1 12.55 1.45 13 2 13 L 4 13 C 4.55 13 5 12.55 5 12 M 12 23 C 11.45 23 11 22.55 11 22 L 11 20 C 11 19.45 11.45 19 12 19 C 12.55 19 13 19.45 13 20 L 13 22 C 13 22.55 12.55 23 12 23 M 7 12 C 7 9.24 9.24 7 12 7 C 14.76 7 17 9.24 17 12 C 17 14.76 14.76 17 12 17 C 9.24 17 7 14.76 7 12 M 9 12 C 9 13.66 10.34 15 12 15 C 13.66 15 15 13.66 15 12 C 15 10.34 13.66 9 12 9 C 10.34 9 9 10.34 9 12 M 4.58 5.99 C 4.19 5.6 4.19 4.97 4.58 4.58 C 4.97 4.19 5.6 4.19 6 4.58 L 7.06 5.64 C 7.45 6.03 7.45 6.66 7.06 7.05 C 6.67 7.44 6.04 7.44 5.65 7.05 L 4.59 5.99 M 16.95 18.36 C 16.56 17.97 16.56 17.34 16.95 16.95 C 17.34 16.56 17.97 16.56 18.36 16.95 L 19.42 18.01 C 19.81 18.4 19.81 19.03 19.42 19.43 C 19.03 19.82 18.4 19.82 18.01 19.43 L 16.95 18.37 M 4.58 18.01 C 4.19 18.4 4.19 19.03 4.58 19.43 C 4.97 19.82 5.6 19.82 6 19.43 L 7.06 18.37 C 7.45 17.98 7.45 17.35 7.06 16.96 C 6.67 16.57 6.04 16.57 5.65 16.96 L 4.59 18.02 M 16.95 7.05 C 16.56 6.66 16.56 6.03 16.95 5.64 L 18.01 4.58 C 18.4 4.19 19.03 4.19 19.43 4.58 C 19.82 4.97 19.82 5.6 19.43 6 L 18.37 7.06 C 17.98 7.45 17.35 7.45 16.96 7.06" fill="currentColor" /></svg>