<svg height="24" viewBox="0 0 24 24" width="24" xmlns="http://www.w3.org/2000/svg"><path d="M 12 6.85 C 12.28 6.85 12.51 6.61 12.51 6.32 L 12.51 4.05 C 12.51 3.77 12.29 3.54 12 3.54 C 11.71 3.54 11.49 3.76 11.49 4.05 L 11.49 6.31 C 11.49 6.6 11.72 6.85 12 6.85 M 4.87 8.47 L 6.85 9.62 C 6.93 9.65 7.01 9.67 7.07 9.67 C 7.26 9.67 7.44 9.57 7.54 9.41 C 7.67 9.16 7.59 8.85 7.35 8.7 L 5.39 7.59 C 5.31 7.54 5.22 7.51 5.13 7.51 C 4.95 7.51 4.78 7.61 4.68 7.77 C 4.6 7.89 4.58 8.03 4.62 8.17 C 4.66 8.3 4.75 8.41 4.87 8.47 M 8.73 7.36 C 8.83 7.52 8.99 7.61 9.17 7.61 C 9.25 7.61 9.31 7.59 9.43 7.54 C 9.56 7.46 9.65 7.34 9.68 7.2 C 9.7 7.07 9.68 6.93 9.61 6.82 L 8.49 4.87 C 8.39 4.7 8.22 4.61 8.04 4.61 C 7.95 4.61 7.85 4.64 7.78 4.68 C 7.66 4.74 7.56 4.85 7.53 4.98 C 7.49 5.12 7.51 5.26 7.58 5.38 L 8.73 7.36 M 14.6 7.55 C 14.69 7.58 14.77 7.6 14.83 7.6 C 15.02 7.6 15.2 7.5 15.3 7.35 L 16.42 5.38 C 16.5 5.26 16.52 5.12 16.48 4.98 C 16.44 4.85 16.35 4.74 16.24 4.68 C 16.16 4.63 16.07 4.6 15.97 4.6 C 15.78 4.6 15.62 4.7 15.54 4.86 L 14.39 6.82 C 14.26 7.09 14.34 7.39 14.6 7.55 M 16.46 9.43 C 16.55 9.58 16.74 9.68 16.93 9.68 C 17.01 9.68 17.06 9.66 17.18 9.61 L 19.12 8.47 C 19.24 8.41 19.34 8.3 19.37 8.16 C 19.41 8.02 19.39 7.88 19.32 7.77 C 19.24 7.6 19.07 7.5 18.88 7.5 C 18.79 7.5 18.69 7.53 18.62 7.57 L 16.63 8.7 C 16.41 8.87 16.34 9.18 16.46 9.43 M 12 7.16 C 9.33 7.16 7.16 9.33 7.16 12 C 7.16 14.67 9.33 16.84 12 16.84 C 14.67 16.84 16.84 14.67 16.84 12 C 16.84 9.33 14.67 7.16 12 7.16 M 12 15.8 C 9.91 15.8 8.2 14.1 8.2 12 C 8.2 9.9 9.9 8.2 12 8.2 C 14.09 8.2 15.8 9.9 15.8 12 C 15.8 14.1 14.09 15.8 12 15.8 M 19.13 15.53 L 17.17 14.38 C 17.09 14.34 17 14.32 16.91 14.32 C 16.72 14.32 16.55 14.41 16.45 14.58 C 16.33 14.83 16.41 15.14 16.64 15.27 L 18.62 16.42 C 18.67 16.44 18.76 16.48 18.87 16.48 C 19.05 16.48 19.22 16.39 19.31 16.23 C 19.39 16.11 19.41 15.97 19.37 15.83 C 19.34 15.7 19.25 15.59 19.13 15.53 M 12 17.15 C 11.71 17.15 11.49 17.38 11.49 17.68 L 11.49 19.94 C 11.49 20.22 11.71 20.45 12 20.45 C 12.29 20.45 12.51 20.23 12.51 19.94 L 12.51 17.68 C 12.51 17.38 12.29 17.15 12 17.15 M 15.3 16.64 C 15.2 16.48 15.04 16.39 14.85 16.39 C 14.76 16.39 14.67 16.41 14.58 16.46 C 14.34 16.61 14.26 16.91 14.4 17.18 L 15.54 19.13 C 15.64 19.29 15.8 19.38 15.98 19.38 C 16.06 19.38 16.14 19.38 16.23 19.32 C 16.36 19.26 16.45 19.14 16.49 18.99 C 16.52 18.85 16.5 18.71 16.43 18.62 L 15.3 16.64 M 6.85 12 C 6.85 11.71 6.62 11.49 6.32 11.49 L 4.05 11.49 C 3.77 11.49 3.54 11.71 3.54 12 C 3.54 12.28 3.76 12.51 4.05 12.51 L 6.31 12.51 C 6.62 12.51 6.85 12.29 6.85 12 M 19.95 11.49 L 17.69 11.49 C 17.4 11.49 17.16 11.72 17.16 12 C 17.16 12.28 17.4 12.51 17.69 12.51 L 19.95 12.51 C 20.23 12.51 20.46 12.29 20.46 12 C 20.45 11.72 20.23 11.49 19.95 11.49 M 7.54 14.57 C 7.44 14.41 7.27 14.31 7.09 14.31 C 7 14.31 6.91 14.34 6.83 14.39 L 4.89 15.53 C 4.77 15.59 4.67 15.7 4.64 15.83 C 4.6 15.97 4.62 16.11 4.7 16.23 C 4.8 16.39 4.96 16.48 5.14 16.48 C 5.25 16.48 5.34 16.44 5.39 16.42 L 7.36 15.28 C 7.59 15.15 7.68 14.85 7.54 14.57 M 9.42 16.45 C 9.35 16.41 9.26 16.39 9.18 16.39 C 8.99 16.39 8.82 16.49 8.73 16.64 L 7.59 18.6 C 7.51 18.71 7.49 18.85 7.52 18.98 C 7.56 19.12 7.65 19.24 7.76 19.3 C 7.86 19.37 7.94 19.37 8.02 19.37 C 8.2 19.37 8.35 19.29 8.49 19.12 L 9.61 17.17 C 9.69 17.05 9.71 16.91 9.67 16.77 C 9.63 16.65 9.55 16.53 9.42 16.45" fill="currentColor" /><path d="M 10.34 13.18 C 10.09 12.83 9.96 12.42 9.96 12 C 9.96 11.86 9.97 11.72 10 11.59 C 10.06 11.32 9.88 11.05 9.61 11 C 9.34 10.94 9.07 11.12 9.02 11.39 C 8.98 11.59 8.96 11.79 8.96 12 C 8.96 12.64 9.16 13.25 9.52 13.77 C 9.61 13.9 9.72 14.03 9.83 14.14 C 9.93 14.24 10.06 14.29 10.19 14.29 C 10.32 14.29 10.45 14.24 10.54 14.15 C 10.74 13.95 10.74 13.64 10.55 13.44 C 10.47 13.35 10.4 13.27 10.34 13.18 M 10.66 9.26 C 10.41 9.38 10.17 9.54 9.97 9.73 C 9.76 9.92 9.75 10.23 9.93 10.44 C 10.03 10.55 10.17 10.61 10.3 10.61 C 10.42 10.61 10.54 10.57 10.64 10.48 C 10.78 10.35 10.94 10.25 11.11 10.17 C 11.36 10.05 11.46 9.75 11.34 9.5 C 11.21 9.24 10.91 9.14 10.66 9.26" fill="currentColor" /></svg>