<svg height="24" viewBox="0 0 24 24" width="24" xmlns="http://www.w3.org/2000/svg"><path d="M 18.34 9.3 C 18.34 9.3 18.2 8.35 17.81 7.92 C 17.33 7.4 16.76 7.35 16.52 7.35 C 14.71 7.21 11.99 7.21 11.99 7.21 C 11.99 7.21 9.28 7.21 7.46 7.35 C 7.43 7.36 7.39 7.36 7.34 7.37 C 7.07 7.41 6.62 7.47 6.17 7.92 C 5.79 8.35 5.69 9.3 5.69 9.3 C 5.69 9.3 5.55 10.39 5.55 11.49 L 5.55 12.54 C 5.55 13.64 5.69 14.78 5.69 14.78 C 5.69 14.78 5.83 15.73 6.21 16.16 C 6.62 16.61 7.17 16.68 7.5 16.72 L 7.52 16.72 C 7.57 16.73 7.61 16.73 7.64 16.74 C 8.69 16.83 12.02 16.88 12.02 16.88 C 12.02 16.88 14.74 16.88 16.55 16.74 C 16.59 16.73 16.63 16.73 16.68 16.72 C 16.96 16.68 17.43 16.62 17.84 16.17 C 18.22 15.74 18.37 14.79 18.37 14.79 C 18.37 14.79 18.51 13.69 18.51 12.55 L 18.51 11.5 C 18.42 10.4 18.32 9.31 18.32 9.31 M 10.38 9.63 L 14.43 12.06 L 10.38 14.44 L 10.38 9.62" fill="currentColor" /></svg>