<svg height="24" viewBox="0 0 24 24" width="24" xmlns="http://www.w3.org/2000/svg"><path d="M 12 17.98 C 11.96 17.98 7.93 17.92 6.67 17.81 C 6.61 17.8 6.55 17.79 6.49 17.79 C 6.08 17.74 5.39 17.66 4.86 17.08 C 4.38 16.54 4.2 15.39 4.2 15.34 C 4.2 15.32 4.03 13.93 4.03 12.6 L 4.03 11.33 C 4.03 10.01 4.2 8.67 4.2 8.65 C 4.2 8.6 4.32 7.45 4.81 6.91 C 5.38 6.34 5.95 6.25 6.29 6.2 C 6.34 6.19 6.39 6.19 6.43 6.18 C 8.62 6.01 11.91 6 11.95 6 C 11.98 6 15.28 6 17.45 6.17 C 17.81 6.17 18.51 6.27 19.08 6.9 C 19.56 7.44 19.74 8.59 19.74 8.64 L 19.97 11.31 L 19.97 12.59 C 19.97 13.97 19.8 15.31 19.8 15.32 C 19.79 15.37 19.62 16.52 19.14 17.06 C 18.62 17.63 18.02 17.72 17.67 17.77 C 17.61 17.78 17.56 17.79 17.52 17.79 C 15.33 17.98 12.03 17.98 12 17.98 M 10.09 14.73 L 14.68 12.03 L 10.09 9.28 L 10.09 14.73" fill="currentColor" /></svg>