<svg xmlns="http://www.w3.org/2000/svg" width="24" height="24" viewBox="0 0 24 24">
  <path d="M3 10C3 10.5523 3.44772 11 4 11V20C4 20.5523 4.44772 21 5 21H6C6.55228 21 7 20.5523 7 20V19H17V20C17 20.5523 17.4477 21 18 21H19C19.5523 21 20 20.5523 20 20V11C20.5523 11 21 10.5523 21 10V8C21 7.44772 20.5523 7 20 7V4C20 3.44772 19.5523 3 19 3H5C4.44772 3 4 3.44772 4 4V7C3.44772 7 3 7.44772 3 8V10ZM9 16C9 16.5523 8.55228 17 8 17H7C6.44772 17 6 16.5523 6 16C6 15.4477 6.44772 15 7 15H8C8.55228 15 9 15.4477 9 16ZM17 15C17.5523 15 18 15.4477 18 16C18 16.5523 17.5523 17 17 17H16C15.4477 17 15 16.5523 15 16C15 15.4477 15.4477 15 16 15H17ZM17 5C17.5523 5 18 5.44772 18 6V12C18 12.5523 17.5523 13 17 13H7C6.44772 13 6 12.5523 6 12V6C6 5.44772 6.44772 5 7 5H17Z"/>
</svg>
