<svg xmlns="http://www.w3.org/2000/svg" width="24" height="24" viewBox="0 0 24 24">
  <path d="M4 20V11C3.44772 11 3 10.5523 3 10V8C3 7.44772 3.44772 7 4 7V4C4 3.44772 4.44772 3 5 3H19C19.5523 3 20 3.44772 20 4V7C20.5523 7 21 7.44772 21 8V10C21 10.5523 20.5523 11 20 11V20C20 20.5523 19.5523 21 19 21H18C17.4477 21 17 20.5523 17 20V19H7V20C7 20.5523 6.55228 21 6 21H5C4.44772 21 4 20.5523 4 20ZM7 17H8C8.55228 17 9 16.5523 9 16C9 15.4477 8.55228 15 8 15H7C6.44772 15 6 15.4477 6 16C6 16.5523 6.44772 17 7 17ZM18 16C18 15.4477 17.5523 15 17 15H16C15.4477 15 15 15.4477 15 16C15 16.5523 15.4477 17 16 17H17C17.5523 17 18 16.5523 18 16ZM18 12V6C18 5.44772 17.5523 5 17 5H7C6.44772 5 6 5.44772 6 6V12C6 12.5523 6.44772 13 7 13H17C17.5523 13 18 12.5523 18 12Z"/>
</svg>
