<svg xmlns="http://www.w3.org/2000/svg" width="24" height="24" viewBox="0 0 24 24">
  <path d="M17 11V13H15V11H17ZM7 17V15H9V17H7ZM13 17V15H11V17H13ZM17 15V17H15V15H17ZM13 13V11H11V13H13ZM9 11V13H7V11H9Z"/>
  <path d="M20 22C20.5523 22 21 21.5523 21 21L21 5C21 4.44772 20.5523 4 20 4H17V3C17 2.44772 16.5523 2 16 2C15.4477 2 15 2.44772 15 3V4H9V3C9 2.44772 8.55229 2 8 2C7.44772 2 7 2.44772 7 3V4H4C3.44772 4 3 4.44772 3 5L3 21C3 21.5523 3.44772 22 4 22H20ZM5 9C5 8.44771 5.44772 8 6 8H18C18.5523 8 19 8.44772 19 9V19C19 19.5523 18.5523 20 18 20H6C5.44772 20 5 19.5523 5 19V9Z"/>
</svg>
