<svg width="24" height="24" viewBox="0 0 24 24" fill="none" xmlns="http://www.w3.org/2000/svg">
<path fill-rule="evenodd" clip-rule="evenodd" d="M21 6V20C21 20.5 21 21 20.5 21.5C20 22 19.5 22 19 22H5C4.5 22 4 22 3.5 21.5C3 21 3 20.5 3 20V6C3 5.5 3 5 3.5 4.5C4 4 4.5 4 5 4H7V2H9V4H15V2H17V4H19C19.5 4 20 4 20.5 4.5C21 5 21 5.5 21 6ZM19 8H5V20H19V8Z" fill="black"/>
<path d="M7 15H9V17H7V15Z" fill="black"/>
<path d="M11 15H13V17H11V15Z" fill="black"/>
<path d="M15 15H17V17H15V15Z" fill="black"/>
<path d="M15 11H17V13H15V11Z" fill="black"/>
<path d="M11 11H13V13H11V11Z" fill="black"/>
<path d="M7 11H9V13H7V11Z" fill="black"/>
</svg>
