<svg xmlns="http://www.w3.org/2000/svg" width="24" height="24" fill="none" viewBox="0 0 24 24">
  <path fill="#000" d="M12 7c-2.76 0-5 2.24-5 5s2.24 5 5 5 5-2.24 5-5-2.24-5-5-5Zm-1 13v2c0 .55.45 1 1 1s1-.45 1-1v-2c0-.55-.45-1-1-1s-1 .45-1 1Zm-3.95-1.64a.996.996 0 0 0 0-1.41.996.996 0 0 0-1.41 0l-1.06 1.06a.996.996 0 0 0 0 1.41c.39.39 1.03.39 1.41 0m12.37-2.47a.996.996 0 0 0-1.41 0c-.38.39-.39 1.03 0 1.41l1.06 1.06c.39.39 1.03.39 1.41 0 .38-.39.39-1.03 0-1.41M2 13h2c.55 0 1-.45 1-1s-.45-1-1-1H2c-.55 0-1 .45-1 1s.45 1 1 1Zm18 0h2c.55 0 1-.45 1-1s-.45-1-1-1h-2c-.55 0-1 .45-1 1s.45 1 1 1ZM11 2v2c0 .55.45 1 1 1s1-.45 1-1V2c0-.55-.45-1-1-1s-1 .45-1 1ZM5.99 4.58a.996.996 0 0 0-1.41 0c-.38.39-.39 1.03 0 1.41l1.06 1.06c.39.39 1.03.39 1.41 0 .38-.39.39-1.03 0-1.41m12.37.35a.996.996 0 0 0 0-1.41c-.39-.38-1.03-.39-1.41 0l-1.06 1.06a.996.996 0 0 0 0 1.41c.39.38 1.03.39 1.41 0"/>
</svg>
