<svg xmlns="http://www.w3.org/2000/svg" width="24" height="24" viewBox="0 0 24 24">
  <path d="M16.85 5.735 18.088 4.498C18.429 4.157 19.024 4.195 19.414 4.586 19.805 4.976 19.843 5.571 19.502 5.912L18.265 7.15C17.924 7.49 17.329 7.452 16.939 7.061 16.548 6.671 16.51 6.076 16.85 5.735ZM5.733 7.148 4.497 5.911C4.157 5.571 4.195 4.976 4.586 4.586 4.976 4.195 5.571 4.157 5.911 4.497L7.148 5.733C7.488 6.074 7.449 6.668 7.059 7.059 6.668 7.449 6.074 7.488 5.733 7.148ZM18.088 19.502 16.848 18.263C16.508 17.922 16.546 17.327 16.936 16.936 17.327 16.546 17.922 16.508 18.263 16.848L19.502 18.088C19.843 18.428 19.805 19.024 19.414 19.414 19.024 19.805 18.428 19.843 18.088 19.502ZM4.498 18.088 5.735 16.85C6.076 16.51 6.671 16.548 7.061 16.939 7.452 17.329 7.49 17.924 7.15 18.265L5.912 19.502C5.571 19.843 4.976 19.805 4.586 19.414 4.195 19.024 4.157 18.429 4.498 18.088ZM11 4V2C11 1.45 11.448 1 12 1 12.552 1 13 1.45 13 2V4C13 4.55 12.552 5 12 5 11.448 5 11 4.55 11 4ZM20 11H22C22.55 11 23 11.448 23 12 23 12.552 22.55 13 22 13H20C19.45 13 19 12.552 19 12 19 11.448 19.45 11 20 11ZM2 11H4C4.55 11 5 11.448 5 12 5 12.552 4.55 13 4 13H2C1.45 13 1 12.552 1 12 1 11.448 1.45 11 2 11ZM11 22V20C11 19.45 11.448 19 12 19 12.552 19 13 19.45 13 20V22C13 22.55 12.552 23 12 23 11.448 23 11 22.55 11 22ZM17 12C17 14.761 14.761 17 12 17 9.239 17 7 14.761 7 12 7 9.239 9.239 7 12 7 14.761 7 17 9.239 17 12Z"/>
</svg>
