<svg xmlns="http://www.w3.org/2000/svg" width="24" height="24" viewBox="0 0 24 24">
  <path d="M17 12C17 14.761 14.761 17 12 17 9.239 17 7 14.761 7 12 7 9.239 9.239 7 12 7 14.761 7 17 9.239 17 12ZM11 4V2C11 1.45 11.448 1 12 1 12.552 1 13 1.45 13 2V4C13 4.55 12.552 5 12 5 11.448 5 11 4.55 11 4ZM20 11H22C22.55 11 23 11.448 23 12 23 12.552 22.55 13 22 13H20C19.45 13 19 12.552 19 12 19 11.448 19.45 11 20 11ZM2 11H4C4.55 11 5 11.448 5 12 5 12.552 4.55 13 4 13H2C1.45 13 1 12.552 1 12 1 11.448 1.45 11 2 11ZM11 22V20C11 19.45 11.448 19 12 19 12.552 19 13 19.45 13 20V22C13 22.55 12.552 23 12 23 11.448 23 11 22.55 11 22Z"/>
</svg>
